ISO-10303-21;
HEADER;
FILE_DESCRIPTION (( 'STEP AP214' ),
    '1' );
FILE_NAME ('NLCV25T-100K-EF.STEP',
    '2022-03-04T09:38:00',
    ( '' ),
    ( '' ),
    'SwSTEP 2.0',
    'SolidWorks 2017',
    '' );
FILE_SCHEMA (( 'AUTOMOTIVE_DESIGN' ));
ENDSEC;

DATA;
#1 = VERTEX_POINT ( 'NONE', #680 ) ;
#2 = DIRECTION ( 'NONE',  ( -1.355252715606882500E-016, 1.000000000000000000, 0.0000000000000000000 ) ) ;
#3 = CARTESIAN_POINT ( 'NONE',  ( 1.149999999999999500, 0.1000000000000000100, 0.6999999999999999600 ) ) ;
#4 = ORIENTED_EDGE ( 'NONE', *, *, #270, .F. ) ;
#5 = EDGE_CURVE ( 'NONE', #651, #161, #245, .T. ) ;
#6 = LINE ( 'NONE', #878, #453 ) ;
#7 = CARTESIAN_POINT ( 'NONE',  ( 1.249999999999999800, 0.09999999999999996400, -0.6999999999999999600 ) ) ;
#8 = LINE ( 'NONE', #913, #435 ) ;
#9 = VECTOR ( 'NONE', #736, 1000.000000000000000 ) ;
#10 = CARTESIAN_POINT ( 'NONE',  ( -1.149999999999999500, 0.09999999999999971400, 0.6999999999999999600 ) ) ;
#11 = CARTESIAN_POINT ( 'NONE',  ( -1.099999999999999900, 1.899999999999999900, 1.000000000000000000 ) ) ;
#12 = CARTESIAN_POINT ( 'NONE',  ( -1.250000000000000000, 0.5499999999999998200, 0.6999999999999999600 ) ) ;
#13 = DIRECTION ( 'NONE',  ( -0.0000000000000000000, -0.0000000000000000000, 1.000000000000000000 ) ) ;
#14 = EDGE_LOOP ( 'NONE', ( #287, #296, #532, #495, #562, #986, #196 ) ) ;
#15 = ORIENTED_EDGE ( 'NONE', *, *, #558, .F. ) ;
#16 = DIRECTION ( 'NONE',  ( -1.000000000000000000, 0.0000000000000000000, 0.0000000000000000000 ) ) ;
#17 = VERTEX_POINT ( 'NONE', #760 ) ;
#18 = LINE ( 'NONE', #353, #805 ) ;
#19 =( NAMED_UNIT ( * ) PLANE_ANGLE_UNIT ( ) SI_UNIT ( $, .RADIAN. ) );
#20 = VECTOR ( 'NONE', #244, 1000.000000000000000 ) ;
#21 = EDGE_CURVE ( 'NONE', #654, #249, #846, .T. ) ;
#22 = LINE ( 'NONE', #670, #780 ) ;
#23 = LINE ( 'NONE', #144, #770 ) ;
#24 = CARTESIAN_POINT ( 'NONE',  ( -1.100000000000000100, 0.03999999999999999400, 1.000000000000000000 ) ) ;
#25 = CARTESIAN_POINT ( 'NONE',  ( -1.099999999999999900, 1.899999999999999900, -1.000000000000000000 ) ) ;
#26 = EDGE_CURVE ( 'NONE', #17, #290, #704, .T. ) ;
#27 = CARTESIAN_POINT ( 'NONE',  ( -0.8499999999999998700, 0.03999999999999999400, 0.6999999999999999600 ) ) ;
#28 = CARTESIAN_POINT ( 'NONE',  ( -1.099999999999999900, 1.899999999999999900, 1.000000000000000000 ) ) ;
#29 = PRESENTATION_STYLE_ASSIGNMENT (( #169 ) ) ;
#30 = VERTEX_POINT ( 'NONE', #140 ) ;
#31 = CARTESIAN_POINT ( 'NONE',  ( 1.100000000000000100, 1.900000000000000100, 1.000000000000000000 ) ) ;
#32 = PLANE ( 'NONE',  #548 ) ;
#33 = DIRECTION ( 'NONE',  ( -1.355252715606882500E-016, 1.000000000000000000, 0.0000000000000000000 ) ) ;
#34 = ORIENTED_EDGE ( 'NONE', *, *, #407, .T. ) ;
#35 = PRESENTATION_STYLE_ASSIGNMENT (( #897 ) ) ;
#36 = EDGE_LOOP ( 'NONE', ( #514, #529, #313, #491 ) ) ;
#37 = DIRECTION ( 'NONE',  ( -0.0000000000000000000, -0.0000000000000000000, -1.000000000000000000 ) ) ;
#38 = EDGE_CURVE ( 'NONE', #326, #716, #291, .T. ) ;
#39 = ORIENTED_EDGE ( 'NONE', *, *, #387, .F. ) ;
#40 = ORIENTED_EDGE ( 'NONE', *, *, #387, .T. ) ;
#41 = VECTOR ( 'NONE', #563, 1000.000000000000000 ) ;
#42 = LINE ( 'NONE', #576, #775 ) ;
#43 = DIRECTION ( 'NONE',  ( 0.0000000000000000000, 0.0000000000000000000, 1.000000000000000000 ) ) ;
#44 = LINE ( 'NONE', #717, #209 ) ;
#45 = LINE ( 'NONE', #150, #835 ) ;
#46 = CARTESIAN_POINT ( 'NONE',  ( -0.8499999999999999800, 2.449293598294707800E-017, 0.6999999999999999600 ) ) ;
#47 = AXIS2_PLACEMENT_3D ( 'NONE', #447, #982, #666 ) ;
#48 = EDGE_LOOP ( 'NONE', ( #991, #664, #115, #232, #619, #211, #512, #678 ) ) ;
#49 = ORIENTED_EDGE ( 'NONE', *, *, #5, .T. ) ;
#50 = CARTESIAN_POINT ( 'NONE',  ( -1.249999999999999600, 0.09999999999999971400, 0.6999999999999999600 ) ) ;
#51 = EDGE_CURVE ( 'NONE', #419, #275, #110, .T. ) ;
#52 = VECTOR ( 'NONE', #919, 1000.000000000000000 ) ;
#53 = ADVANCED_FACE ( 'NONE', ( #507 ), #744, .T. ) ;
#54 = DIRECTION ( 'NONE',  ( 1.000000000000000000, 1.170371888848738100E-016, 0.0000000000000000000 ) ) ;
#55 = VECTOR ( 'NONE', #525, 1000.000000000000000 ) ;
#56 = VECTOR ( 'NONE', #597, 1000.000000000000000 ) ;
#57 = DIRECTION ( 'NONE',  ( -1.000000000000000000, 0.0000000000000000000, 0.0000000000000000000 ) ) ;
#58 = EDGE_CURVE ( 'NONE', #490, #361, #88, .T. ) ;
#59 = ADVANCED_FACE ( 'NONE', ( #600 ), #659, .T. ) ;
#60 = DIRECTION ( 'NONE',  ( 0.0000000000000000000, 1.000000000000000000, 0.0000000000000000000 ) ) ;
#61 = CARTESIAN_POINT ( 'NONE',  ( -1.149999999999999500, 0.5499999999999998200, -1.380073525436772400 ) ) ;
#62 = VERTEX_POINT ( 'NONE', #377 ) ;
#63 = SURFACE_STYLE_USAGE ( .BOTH. , #373 ) ;
#64 = EDGE_LOOP ( 'NONE', ( #405, #518, #799, #403 ) ) ;
#65 = ORIENTED_EDGE ( 'NONE', *, *, #350, .F. ) ;
#66 = DIRECTION ( 'NONE',  ( 0.0000000000000000000, 0.0000000000000000000, 1.000000000000000000 ) ) ;
#67 = DIRECTION ( 'NONE',  ( -0.0000000000000000000, 1.000000000000000000, -0.0000000000000000000 ) ) ;
#68 = ORIENTED_EDGE ( 'NONE', *, *, #152, .F. ) ;
#69 = ADVANCED_FACE ( 'NONE', ( #399 ), #905, .F. ) ;
#70 = VERTEX_POINT ( 'NONE', #983 ) ;
#71 = CARTESIAN_POINT ( 'NONE',  ( 1.100000000000000100, 0.03999999999999999400, 0.6999999999999999600 ) ) ;
#72 = LINE ( 'NONE', #975, #457 ) ;
#73 = STYLED_ITEM ( 'NONE', ( #880 ), #229 ) ;
#74 = DIRECTION ( 'NONE',  ( -1.000000000000000000, 0.0000000000000000000, -0.0000000000000000000 ) ) ;
#75 = EDGE_CURVE ( 'NONE', #629, #590, #564, .T. ) ;
#76 = FACE_OUTER_BOUND ( 'NONE', #819, .T. ) ;
#77 = CARTESIAN_POINT ( 'NONE',  ( 1.149999999999999500, 0.1000000000000000100, 0.6999999999999999600 ) ) ;
#78 = CARTESIAN_POINT ( 'NONE',  ( -0.8499999999999999800, 2.710505431213761100E-017, 0.6999999999999999600 ) ) ;
#79 = ORIENTED_EDGE ( 'NONE', *, *, #128, .F. ) ;
#80 = EDGE_CURVE ( 'NONE', #973, #606, #389, .T. ) ;
#81 = DIRECTION ( 'NONE',  ( 0.0000000000000000000, 0.0000000000000000000, 1.000000000000000000 ) ) ;
#82 = PLANE ( 'NONE',  #921 ) ;
#83 = CLOSED_SHELL ( 'NONE', ( #743, #59, #511, #748, #902, #836, #131, #829, #894 ) ) ;
#84 = VECTOR ( 'NONE', #251, 1000.000000000000000 ) ;
#85 = VECTOR ( 'NONE', #611, 1000.000000000000000 ) ;
#86 = DIRECTION ( 'NONE',  ( -0.0000000000000000000, -0.0000000000000000000, -1.000000000000000000 ) ) ;
#87 = CARTESIAN_POINT ( 'NONE',  ( 0.8499999999999999800, 0.09999999999999996400, -0.6999999999999999600 ) ) ;
#88 = LINE ( 'NONE', #304, #9 ) ;
#89 = MECHANICAL_DESIGN_GEOMETRIC_PRESENTATION_REPRESENTATION (  '', ( #781 ), #815 ) ;
#90 = EDGE_CURVE ( 'NONE', #146, #521, #216, .T. ) ;
#91 = CARTESIAN_POINT ( 'NONE',  ( -1.249999999999999800, 0.09999999999999965900, 0.6999999999999999600 ) ) ;
#92 = ORIENTED_EDGE ( 'NONE', *, *, #845, .T. ) ;
#93 = CARTESIAN_POINT ( 'NONE',  ( 1.250000000000000000, 0.5500000000000002700, -0.6999999999999999600 ) ) ;
#94 = ORIENTED_EDGE ( 'NONE', *, *, #159, .T. ) ;
#95 = AXIS2_PLACEMENT_3D ( 'NONE', #122, #800, #113 ) ;
#96 = CARTESIAN_POINT ( 'NONE',  ( -1.149999999999999500, 0.09999999999999971400, 0.6999999999999999600 ) ) ;
#97 = LINE ( 'NONE', #12, #464 ) ;
#98 = EDGE_CURVE ( 'NONE', #382, #467, #980, .T. ) ;
#99 = ORIENTED_EDGE ( 'NONE', *, *, #454, .T. ) ;
#100 = FILL_AREA_STYLE_COLOUR ( '', #147 ) ;
#101 = CARTESIAN_POINT ( 'NONE',  ( 0.8499999999999999800, 0.09999999999999996400, 0.6999999999999999600 ) ) ;
#102 = PLANE ( 'NONE',  #969 ) ;
#103 = CARTESIAN_POINT ( 'NONE',  ( -1.149999999999999500, -1.061822068251500900E-017, 0.6999999999999999600 ) ) ;
#104 = VECTOR ( 'NONE', #513, 1000.000000000000000 ) ;
#105 = AXIS2_PLACEMENT_3D ( 'NONE', #814, #33, #974 ) ;
#106 = FACE_OUTER_BOUND ( 'NONE', #14, .T. ) ;
#107 = EDGE_CURVE ( 'NONE', #629, #352, #23, .T. ) ;
#108 = CARTESIAN_POINT ( 'NONE',  ( -0.8499999999999999800, 0.03999999999999999400, 1.000000000000000000 ) ) ;
#109 = EDGE_LOOP ( 'NONE', ( #205, #149, #852, #573 ) ) ;
#110 = LINE ( 'NONE', #295, #537 ) ;
#111 =( NAMED_UNIT ( * ) PLANE_ANGLE_UNIT ( ) SI_UNIT ( $, .RADIAN. ) );
#112 = EDGE_CURVE ( 'NONE', #434, #896, #863, .T. ) ;
#113 = DIRECTION ( 'NONE',  ( 0.0000000000000000000, -0.0000000000000000000, 1.000000000000000000 ) ) ;
#114 = ORIENTED_EDGE ( 'NONE', *, *, #425, .T. ) ;
#115 = ORIENTED_EDGE ( 'NONE', *, *, #684, .T. ) ;
#116 = VECTOR ( 'NONE', #583, 1000.000000000000000 ) ;
#117 = EDGE_LOOP ( 'NONE', ( #903, #622, #639, #135 ) ) ;
#118 = PLANE ( 'NONE',  #509 ) ;
#119 = FACE_OUTER_BOUND ( 'NONE', #366, .T. ) ;
#120 = FACE_OUTER_BOUND ( 'NONE', #315, .T. ) ;
#121 = DIRECTION ( 'NONE',  ( 1.000000000000000000, 0.0000000000000000000, 0.0000000000000000000 ) ) ;
#122 = CARTESIAN_POINT ( 'NONE',  ( -1.100000000000000100, 0.03999999999999999400, 1.000000000000000000 ) ) ;
#123 = AXIS2_PLACEMENT_3D ( 'NONE', #823, #218, #596 ) ;
#124 =( NAMED_UNIT ( * ) PLANE_ANGLE_UNIT ( ) SI_UNIT ( $, .RADIAN. ) );
#125 = EDGE_CURVE ( 'NONE', #397, #716, #616, .T. ) ;
#126 = FACE_OUTER_BOUND ( 'NONE', #109, .T. ) ;
#127 = DIRECTION ( 'NONE',  ( 1.000000000000000000, 0.0000000000000000000, 0.0000000000000000000 ) ) ;
#128 = EDGE_CURVE ( 'NONE', #566, #30, #8, .T. ) ;
#129 = EDGE_LOOP ( 'NONE', ( #826, #923, #462, #605 ) ) ;
#130 = CARTESIAN_POINT ( 'NONE',  ( -1.149999999999999500, 0.09999999999999971400, -1.380073525436772400 ) ) ;
#131 = ADVANCED_FACE ( 'NONE', ( #626 ), #142, .T. ) ;
#132 = CARTESIAN_POINT ( 'NONE',  ( 1.149999999999999500, 0.5500000000000001600, -0.6999999999999999600 ) ) ;
#133 = ORIENTED_EDGE ( 'NONE', *, *, #925, .T. ) ;
#134 = CARTESIAN_POINT ( 'NONE',  ( 1.149999999999999500, 0.1000000000000000100, 0.6999999999999999600 ) ) ;
#135 = ORIENTED_EDGE ( 'NONE', *, *, #98, .T. ) ;
#136 = CARTESIAN_POINT ( 'NONE',  ( 1.100000000000000100, 1.900000000000000100, -1.000000000000000000 ) ) ;
#137 = ORIENTED_EDGE ( 'NONE', *, *, #282, .T. ) ;
#138 = MECHANICAL_DESIGN_GEOMETRIC_PRESENTATION_REPRESENTATION (  '', ( #463 ), #191 ) ;
#139 = ORIENTED_EDGE ( 'NONE', *, *, #112, .F. ) ;
#140 = CARTESIAN_POINT ( 'NONE',  ( 1.100000000000000100, 0.03999999999999999400, -0.7000000000000000700 ) ) ;
#141 = EDGE_CURVE ( 'NONE', #70, #654, #458, .T. ) ;
#142 = PLANE ( 'NONE',  #675 ) ;
#143 = ORIENTED_EDGE ( 'NONE', *, *, #865, .F. ) ;
#144 = CARTESIAN_POINT ( 'NONE',  ( -0.8499999999999999800, 0.09999999999999975600, -0.6999999999999999600 ) ) ;
#145 = CYLINDRICAL_SURFACE ( 'NONE', #802, 0.1000000000000000500 ) ;
#146 = VERTEX_POINT ( 'NONE', #470 ) ;
#147 = COLOUR_RGB ( '',0.2509803921568627400, 0.2509803921568627400, 0.2509803921568627400 ) ;
#148 = DIRECTION ( 'NONE',  ( 1.000000000000000000, 1.355252715606882800E-016, 0.0000000000000000000 ) ) ;
#149 = ORIENTED_EDGE ( 'NONE', *, *, #369, .T. ) ;
#150 = CARTESIAN_POINT ( 'NONE',  ( -1.149999999999999500, 0.09999999999999971400, 0.6999999999999999600 ) ) ;
#151 = AXIS2_PLACEMENT_3D ( 'NONE', #212, #203, #508 ) ;
#152 = EDGE_CURVE ( 'NONE', #550, #372, #45, .T. ) ;
#153 = DIRECTION ( 'NONE',  ( -1.000000000000000000, -1.355252715606882500E-016, 0.0000000000000000000 ) ) ;
#154 = PLANE ( 'NONE',  #997 ) ;
#155 = DIRECTION ( 'NONE',  ( -0.0000000000000000000, 0.0000000000000000000, -1.000000000000000000 ) ) ;
#156 = CARTESIAN_POINT ( 'NONE',  ( 0.8499999999999999800, 2.326828918379971400E-016, -0.6999999999999999600 ) ) ;
#157 = ORIENTED_EDGE ( 'NONE', *, *, #465, .T. ) ;
#158 = LINE ( 'NONE', #912, #877 ) ;
#159 = EDGE_CURVE ( 'NONE', #716, #646, #599, .T. ) ;
#160 = DIRECTION ( 'NONE',  ( 1.000000000000000000, 0.0000000000000000000, 0.0000000000000000000 ) ) ;
#161 = VERTEX_POINT ( 'NONE', #78 ) ;
#162 = DIRECTION ( 'NONE',  ( -1.000000000000000000, 0.0000000000000000000, 0.0000000000000000000 ) ) ;
#163 = LINE ( 'NONE', #966, #383 ) ;
#164 = EDGE_LOOP ( 'NONE', ( #40, #472, #220, #79 ) ) ;
#165 = DIRECTION ( 'NONE',  ( -0.0000000000000000000, 0.0000000000000000000, 1.000000000000000000 ) ) ;
#166 = ORIENTED_EDGE ( 'NONE', *, *, #879, .F. ) ;
#167 = DIRECTION ( 'NONE',  ( 0.0000000000000000000, 1.000000000000000000, 0.0000000000000000000 ) ) ;
#168 = VERTEX_POINT ( 'NONE', #11 ) ;
#169 = SURFACE_STYLE_USAGE ( .BOTH. , #263 ) ;
#170 = EDGE_LOOP ( 'NONE', ( #638, #430, #15, #301, #714, #68, #306 ) ) ;
#171 = LINE ( 'NONE', #289, #569 ) ;
#172 = DIRECTION ( 'NONE',  ( -0.0000000000000000000, 0.0000000000000000000, -1.000000000000000000 ) ) ;
#173 = LINE ( 'NONE', #804, #359 ) ;
#174 = EDGE_CURVE ( 'NONE', #504, #709, #22, .T. ) ;
#175 = EDGE_LOOP ( 'NONE', ( #208, #682, #207, #977 ) ) ;
#176 = ORIENTED_EDGE ( 'NONE', *, *, #976, .T. ) ;
#177 = LINE ( 'NONE', #380, #963 ) ;
#178 = EDGE_CURVE ( 'NONE', #859, #709, #414, .T. ) ;
#179 =( NAMED_UNIT ( * ) SI_UNIT ( $, .STERADIAN. ) SOLID_ANGLE_UNIT ( ) );
#180 = DIRECTION ( 'NONE',  ( -1.000000000000000000, -9.856383386231860100E-017, -0.0000000000000000000 ) ) ;
#181 = CYLINDRICAL_SURFACE ( 'NONE', #123, 0.1000000000000000500 ) ;
#182 = DIRECTION ( 'NONE',  ( -1.000000000000000000, -1.355252715606882800E-016, 0.0000000000000000000 ) ) ;
#183 = DIRECTION ( 'NONE',  ( -1.165808787618822000E-016, -1.000000000000000000, 0.0000000000000000000 ) ) ;
#184 = VERTEX_POINT ( 'NONE', #757 ) ;
#185 = AXIS2_PLACEMENT_3D ( 'NONE', #882, #423, #711 ) ;
#186 = AXIS2_PLACEMENT_3D ( 'NONE', #460, #222, #995 ) ;
#187 = VERTEX_POINT ( 'NONE', #248 ) ;
#188 = CIRCLE ( 'NONE', #450, 0.1000000000000000500 ) ;
#189 = DIRECTION ( 'NONE',  ( 0.0000000000000000000, 0.0000000000000000000, 1.000000000000000000 ) ) ;
#190 = VERTEX_POINT ( 'NONE', #677 ) ;
#191 =( GEOMETRIC_REPRESENTATION_CONTEXT ( 3 ) GLOBAL_UNCERTAINTY_ASSIGNED_CONTEXT ( ( #935 ) ) GLOBAL_UNIT_ASSIGNED_CONTEXT ( ( #271, #794, #348 ) ) REPRESENTATION_CONTEXT ( 'NONE', 'WORKASPACE' ) );
#192 = LINE ( 'NONE', #77, #479 ) ;
#193 = CARTESIAN_POINT ( 'NONE',  ( 0.8499999999999999800, 0.09999999999999996400, -1.380073525436772400 ) ) ;
#194 = ORIENTED_EDGE ( 'NONE', *, *, #285, .T. ) ;
#195 = EDGE_CURVE ( 'NONE', #654, #467, #648, .T. ) ;
#196 = ORIENTED_EDGE ( 'NONE', *, *, #731, .F. ) ;
#197 = CARTESIAN_POINT ( 'NONE',  ( -1.149999999999999500, -2.846030702774449100E-016, -0.6999999999999999600 ) ) ;
#198 = ORIENTED_EDGE ( 'NONE', *, *, #806, .T. ) ;
#199 = FACE_OUTER_BOUND ( 'NONE', #48, .T. ) ;
#200 = PLANE ( 'NONE',  #885 ) ;
#201 = VECTOR ( 'NONE', #928, 1000.000000000000000 ) ;
#202 = PLANE ( 'NONE',  #907 ) ;
#203 = DIRECTION ( 'NONE',  ( 0.0000000000000000000, 0.0000000000000000000, 1.000000000000000000 ) ) ;
#204 = DIRECTION ( 'NONE',  ( 1.000000000000000000, 0.0000000000000000000, 0.0000000000000000000 ) ) ;
#205 = ORIENTED_EDGE ( 'NONE', *, *, #58, .F. ) ;
#206 = PLANE ( 'NONE',  #105 ) ;
#207 = ORIENTED_EDGE ( 'NONE', *, *, #51, .T. ) ;
#208 = ORIENTED_EDGE ( 'NONE', *, *, #749, .F. ) ;
#209 = VECTOR ( 'NONE', #567, 1000.000000000000000 ) ;
#210 = ADVANCED_FACE ( 'NONE', ( #683 ), #602, .F. ) ;
#211 = ORIENTED_EDGE ( 'NONE', *, *, #486, .F. ) ;
#212 = CARTESIAN_POINT ( 'NONE',  ( -1.149999999999999500, 0.09999999999999971400, -0.6999999999999999600 ) ) ;
#213 = EDGE_CURVE ( 'NONE', #17, #566, #485, .T. ) ;
#214 = ORIENTED_EDGE ( 'NONE', *, *, #58, .T. ) ;
#215 = CARTESIAN_POINT ( 'NONE',  ( -1.149999999999999500, 0.09999999999999971400, -0.6999999999999999600 ) ) ;
#216 = LINE ( 'NONE', #136, #657 ) ;
#217 = DIRECTION ( 'NONE',  ( -1.355252715606882800E-016, 1.000000000000000000, 0.0000000000000000000 ) ) ;
#218 = DIRECTION ( 'NONE',  ( 0.0000000000000000000, 0.0000000000000000000, 1.000000000000000000 ) ) ;
#219 = CARTESIAN_POINT ( 'NONE',  ( -1.249999999999999800, 0.09999999999999965900, -1.380073525436772400 ) ) ;
#220 = ORIENTED_EDGE ( 'NONE', *, *, #307, .F. ) ;
#221 = CARTESIAN_POINT ( 'NONE',  ( 1.149999999999999500, 0.5500000000000001600, 0.6999999999999999600 ) ) ;
#222 = DIRECTION ( 'NONE',  ( -0.0000000000000000000, -0.0000000000000000000, -1.000000000000000000 ) ) ;
#223 = ORIENTED_EDGE ( 'NONE', *, *, #107, .T. ) ;
#224 = EDGE_LOOP ( 'NONE', ( #258, #297, #427, #861 ) ) ;
#225 = ADVANCED_FACE ( 'NONE', ( #120 ), #618, .F. ) ;
#226 = CARTESIAN_POINT ( 'NONE',  ( 1.149999999999999500, 0.09999999999999999200, -0.6999999999999999600 ) ) ;
#227 = VECTOR ( 'NONE', #183, 1000.000000000000000 ) ;
#228 = FACE_OUTER_BOUND ( 'NONE', #707, .T. ) ;
#229 = ADVANCED_BREP_SHAPE_REPRESENTATION ( 'NLCV25T-100K-EF', ( #722, #911, #312, #636 ), #642 ) ;
#230 = PRESENTATION_LAYER_ASSIGNMENT (  '', '', ( #73 ) ) ;
#231 = VECTOR ( 'NONE', #335, 1000.000000000000000 ) ;
#232 = ORIENTED_EDGE ( 'NONE', *, *, #90, .T. ) ;
#233 = VECTOR ( 'NONE', #998, 1000.000000000000000 ) ;
#234 = FACE_OUTER_BOUND ( 'NONE', #64, .T. ) ;
#235 = ADVANCED_FACE ( 'NONE', ( #455 ), #154, .F. ) ;
#236 = EDGE_CURVE ( 'NONE', #187, #290, #386, .T. ) ;
#237 = CARTESIAN_POINT ( 'NONE',  ( 1.100000000000000100, 1.900000000000000100, 1.000000000000000000 ) ) ;
#238 = EDGE_CURVE ( 'NONE', #187, #859, #962, .T. ) ;
#239 = CARTESIAN_POINT ( 'NONE',  ( 1.149999999999999500, 2.710505431213761100E-016, -1.380073525436772400 ) ) ;
#240 = DIRECTION ( 'NONE',  ( 1.000000000000000000, 0.0000000000000000000, 0.0000000000000000000 ) ) ;
#241 = CARTESIAN_POINT ( 'NONE',  ( -1.149999999999999500, 0.09999999999999971400, 0.6999999999999999600 ) ) ;
#242 = DIRECTION ( 'NONE',  ( 1.000000000000000000, 0.0000000000000000000, 0.0000000000000000000 ) ) ;
#243 = ORIENTED_EDGE ( 'NONE', *, *, #825, .F. ) ;
#244 = DIRECTION ( 'NONE',  ( -0.0000000000000000000, 1.000000000000000000, -0.0000000000000000000 ) ) ;
#245 = LINE ( 'NONE', #608, #633 ) ;
#246 = PRESENTATION_LAYER_ASSIGNMENT (  '', '', ( #463 ) ) ;
#247 = DIRECTION ( 'NONE',  ( 1.000000000000000000, 0.0000000000000000000, -0.0000000000000000000 ) ) ;
#248 = CARTESIAN_POINT ( 'NONE',  ( 0.8499999999999999800, 0.09999999999999996400, -0.6999999999999999600 ) ) ;
#249 = VERTEX_POINT ( 'NONE', #321 ) ;
#250 = VERTEX_POINT ( 'NONE', #156 ) ;
#251 = DIRECTION ( 'NONE',  ( -0.0000000000000000000, -0.0000000000000000000, -1.000000000000000000 ) ) ;
#252 = ORIENTED_EDGE ( 'NONE', *, *, #698, .T. ) ;
#253 = CARTESIAN_POINT ( 'NONE',  ( 1.149999999999999500, 0.1000000000000000100, -0.6999999999999999600 ) ) ;
#254 = EDGE_CURVE ( 'NONE', #854, #372, #671, .T. ) ;
#255 = VECTOR ( 'NONE', #340, 1000.000000000000000 ) ;
#256 = DIRECTION ( 'NONE',  ( -1.000000000000000000, 0.0000000000000000000, 0.0000000000000000000 ) ) ;
#257 = VECTOR ( 'NONE', #615, 1000.000000000000000 ) ;
#258 = ORIENTED_EDGE ( 'NONE', *, *, #38, .F. ) ;
#259 = LINE ( 'NONE', #531, #728 ) ;
#260 = VECTOR ( 'NONE', #327, 1000.000000000000000 ) ;
#261 = FILL_AREA_STYLE ('',( #100 ) ) ;
#262 = FACE_OUTER_BOUND ( 'NONE', #324, .T. ) ;
#263 = SURFACE_SIDE_STYLE ('',( #843 ) ) ;
#264 = AXIS2_PLACEMENT_3D ( 'NONE', #614, #160, #474 ) ;
#265 = STYLED_ITEM ( 'NONE', ( #35 ), #312 ) ;
#266 = ORIENTED_EDGE ( 'NONE', *, *, #630, .T. ) ;
#267 = CARTESIAN_POINT ( 'NONE',  ( 1.149999999999999500, 0.5500000000000001600, -1.380073525436772400 ) ) ;
#268 = VECTOR ( 'NONE', #870, 1000.000000000000000 ) ;
#269 = DIRECTION ( 'NONE',  ( -1.000000000000000000, 0.0000000000000000000, 0.0000000000000000000 ) ) ;
#270 = EDGE_CURVE ( 'NONE', #824, #352, #833, .T. ) ;
#271 =( LENGTH_UNIT ( ) NAMED_UNIT ( * ) SI_UNIT ( .MILLI., .METRE. ) );
#272 = CARTESIAN_POINT ( 'NONE',  ( 0.8499999999999999800, 2.326828918379971400E-016, -0.6999999999999999600 ) ) ;
#273 = VERTEX_POINT ( 'NONE', #942 ) ;
#274 = ORIENTED_EDGE ( 'NONE', *, *, #425, .F. ) ;
#275 = VERTEX_POINT ( 'NONE', #406 ) ;
#276 = PRODUCT_DEFINITION ( 'UNKNOWN', '', #851, #542 ) ;
#277 = FACE_OUTER_BOUND ( 'NONE', #493, .T. ) ;
#278 = ORIENTED_EDGE ( 'NONE', *, *, #984, .F. ) ;
#279 = FACE_OUTER_BOUND ( 'NONE', #687, .T. ) ;
#280 = VECTOR ( 'NONE', #316, 1000.000000000000000 ) ;
#281 = CARTESIAN_POINT ( 'NONE',  ( -0.8499999999999999800, 2.449293598294707800E-017, -1.380073525436772400 ) ) ;
#282 = EDGE_CURVE ( 'NONE', #824, #914, #328, .T. ) ;
#283 = ORIENTED_EDGE ( 'NONE', *, *, #336, .F. ) ;
#284 =( NAMED_UNIT ( * ) SI_UNIT ( $, .STERADIAN. ) SOLID_ANGLE_UNIT ( ) );
#285 = EDGE_CURVE ( 'NONE', #521, #1, #996, .T. ) ;
#286 = VECTOR ( 'NONE', #167, 1000.000000000000000 ) ;
#287 = ORIENTED_EDGE ( 'NONE', *, *, #159, .F. ) ;
#288 = VECTOR ( 'NONE', #735, 1000.000000000000000 ) ;
#289 = CARTESIAN_POINT ( 'NONE',  ( -1.149999999999999500, 0.09999999999999971400, -0.6999999999999999600 ) ) ;
#290 = VERTEX_POINT ( 'NONE', #101 ) ;
#291 = LINE ( 'NONE', #239, #280 ) ;
#292 = CARTESIAN_POINT ( 'NONE',  ( -0.8499999999999999800, 2.449293598294707800E-017, -0.6999999999999999600 ) ) ;
#293 = CARTESIAN_POINT ( 'NONE',  ( 1.249999999999999800, 0.09999999999999997800, 0.6999999999999999600 ) ) ;
#294 = AXIS2_PLACEMENT_3D ( 'NONE', #832, #990, #456 ) ;
#295 = CARTESIAN_POINT ( 'NONE',  ( 1.149999999999999500, 0.1000000000000000100, -1.380073525436772400 ) ) ;
#296 = ORIENTED_EDGE ( 'NONE', *, *, #125, .F. ) ;
#297 = ORIENTED_EDGE ( 'NONE', *, *, #392, .T. ) ;
#298 = VECTOR ( 'NONE', #60, 1000.000000000000000 ) ;
#299 = DIRECTION ( 'NONE',  ( -0.0000000000000000000, 1.000000000000000000, -0.0000000000000000000 ) ) ;
#300 = DIRECTION ( 'NONE',  ( -1.000000000000000000, -1.355252715606882800E-016, 0.0000000000000000000 ) ) ;
#301 = ORIENTED_EDGE ( 'NONE', *, *, #909, .F. ) ;
#302 = LINE ( 'NONE', #958, #476 ) ;
#303 = CARTESIAN_POINT ( 'NONE',  ( -1.099999999999999900, 1.899999999999999900, -0.7000000000000000700 ) ) ;
#304 = CARTESIAN_POINT ( 'NONE',  ( -1.249999999999999600, 0.09999999999999968600, -1.380073525436772400 ) ) ;
#305 = ADVANCED_FACE ( 'NONE', ( #524 ), #418, .T. ) ;
#306 = ORIENTED_EDGE ( 'NONE', *, *, #516, .F. ) ;
#307 = EDGE_CURVE ( 'NONE', #30, #859, #323, .T. ) ;
#308 = ADVANCED_FACE ( 'NONE', ( #734 ), #488, .T. ) ;
#309 = DIRECTION ( 'NONE',  ( 0.0000000000000000000, -1.000000000000000000, 0.0000000000000000000 ) ) ;
#310 = DIRECTION ( 'NONE',  ( -1.000000000000000000, -4.818676322157796400E-016, 0.0000000000000000000 ) ) ;
#311 = DIRECTION ( 'NONE',  ( -1.000000000000000000, 0.0000000000000000000, 0.0000000000000000000 ) ) ;
#312 = MANIFOLD_SOLID_BREP ( 'Boss-Extrude2[2]', #641 ) ;
#313 = ORIENTED_EDGE ( 'NONE', *, *, #195, .T. ) ;
#314 = VECTOR ( 'NONE', #13, 1000.000000000000000 ) ;
#315 = EDGE_LOOP ( 'NONE', ( #697, #552, #665, #360, #539, #918, #422, #876 ) ) ;
#316 = DIRECTION ( 'NONE',  ( 0.0000000000000000000, 0.0000000000000000000, 1.000000000000000000 ) ) ;
#317 = AXIS2_PLACEMENT_3D ( 'NONE', #253, #331, #57 ) ;
#318 = PLANE ( 'NONE',  #264 ) ;
#319 = DIRECTION ( 'NONE',  ( 0.0000000000000000000, 0.0000000000000000000, 1.000000000000000000 ) ) ;
#320 = CARTESIAN_POINT ( 'NONE',  ( -1.249999999999999800, 0.09999999999999965900, -0.6999999999999999600 ) ) ;
#321 = CARTESIAN_POINT ( 'NONE',  ( 1.149999999999999500, 0.5500000000000001600, -0.6999999999999999600 ) ) ;
#322 = EDGE_CURVE ( 'NONE', #70, #397, #42, .T. ) ;
#323 = LINE ( 'NONE', #774, #688 ) ;
#324 = EDGE_LOOP ( 'NONE', ( #345, #993, #732, #936 ) ) ;
#325 = CARTESIAN_POINT ( 'NONE',  ( -0.8499999999999999800, 0.09999999999999975600, -0.6999999999999999600 ) ) ;
#326 = VERTEX_POINT ( 'NONE', #953 ) ;
#327 = DIRECTION ( 'NONE',  ( 0.0000000000000000000, 0.0000000000000000000, 1.000000000000000000 ) ) ;
#328 = LINE ( 'NONE', #108, #231 ) ;
#329 = EDGE_LOOP ( 'NONE', ( #484, #900, #99, #478 ) ) ;
#330 = PLANE ( 'NONE',  #607 ) ;
#331 = DIRECTION ( 'NONE',  ( -0.0000000000000000000, 0.0000000000000000000, -1.000000000000000000 ) ) ;
#332 = PRODUCT ( 'NLCV25T-100K-EF', 'NLCV25T-100K-EF', '', ( #895 ) ) ;
#333 = MECHANICAL_DESIGN_GEOMETRIC_PRESENTATION_REPRESENTATION (  '', ( #73 ), #437 ) ;
#334 = ORIENTED_EDGE ( 'NONE', *, *, #465, .F. ) ;
#335 = DIRECTION ( 'NONE',  ( 0.0000000000000000000, 0.0000000000000000000, -1.000000000000000000 ) ) ;
#336 = EDGE_CURVE ( 'NONE', #250, #326, #595, .T. ) ;
#337 = LINE ( 'NONE', #193, #766 ) ;
#338 = LINE ( 'NONE', #24, #503 ) ;
#339 = EDGE_LOOP ( 'NONE', ( #793, #791, #772, #971 ) ) ;
#340 = DIRECTION ( 'NONE',  ( -1.165808787618822000E-016, -1.000000000000000000, 0.0000000000000000000 ) ) ;
#341 = DIRECTION ( 'NONE',  ( -1.000000000000000000, 0.0000000000000000000, 0.0000000000000000000 ) ) ;
#342 = EDGE_LOOP ( 'NONE', ( #784, #498, #243, #278, #346, #839, #560 ) ) ;
#343 = EDGE_CURVE ( 'NONE', #945, #973, #623, .T. ) ;
#344 = DIRECTION ( 'NONE',  ( 0.0000000000000000000, 1.000000000000000000, -0.0000000000000000000 ) ) ;
#345 = ORIENTED_EDGE ( 'NONE', *, *, #5, .F. ) ;
#346 = ORIENTED_EDGE ( 'NONE', *, *, #369, .F. ) ;
#347 = EDGE_LOOP ( 'NONE', ( #661, #143, #779, #692, #631, #883, #283 ) ) ;
#348 =( NAMED_UNIT ( * ) SI_UNIT ( $, .STERADIAN. ) SOLID_ANGLE_UNIT ( ) );
#349 = CLOSED_SHELL ( 'NONE', ( #225, #890, #906, #520, #375, #589, #371, #526, #967, #235, #530, #69, #672, #668 ) ) ;
#350 = EDGE_CURVE ( 'NONE', #1, #62, #830, .T. ) ;
#351 = DIRECTION ( 'NONE',  ( 0.0000000000000000000, -1.000000000000000000, 0.0000000000000000000 ) ) ;
#352 = VERTEX_POINT ( 'NONE', #810 ) ;
#353 = CARTESIAN_POINT ( 'NONE',  ( -1.100000000000000100, 0.03999999999999999400, 0.6999999999999999600 ) ) ;
#354 = EDGE_CURVE ( 'NONE', #249, #419, #409, .T. ) ;
#355 = ORIENTED_EDGE ( 'NONE', *, *, #75, .F. ) ;
#356 = PLANE ( 'NONE',  #185 ) ;
#357 = LINE ( 'NONE', #952, #41 ) ;
#358 =( NAMED_UNIT ( * ) PLANE_ANGLE_UNIT ( ) SI_UNIT ( $, .RADIAN. ) );
#359 = VECTOR ( 'NONE', #351, 1000.000000000000000 ) ;
#360 = ORIENTED_EDGE ( 'NONE', *, *, #785, .F. ) ;
#361 = VERTEX_POINT ( 'NONE', #50 ) ;
#362 = LINE ( 'NONE', #762, #741 ) ;
#363 = DIRECTION ( 'NONE',  ( 1.000000000000000000, 0.0000000000000000000, 0.0000000000000000000 ) ) ;
#364 = PRESENTATION_LAYER_ASSIGNMENT (  '', '', ( #265 ) ) ;
#365 = FILL_AREA_STYLE_COLOUR ( '', #886 ) ;
#366 = EDGE_LOOP ( 'NONE', ( #868, #988, #49, #694 ) ) ;
#367 = DIRECTION ( 'NONE',  ( -1.000000000000000000, 0.0000000000000000000, 0.0000000000000000000 ) ) ;
#368 = CARTESIAN_POINT ( 'NONE',  ( -1.100000000000000100, 0.09999999999999971400, 0.6999999999999999600 ) ) ;
#369 = EDGE_CURVE ( 'NONE', #490, #891, #792, .T. ) ;
#370 = CARTESIAN_POINT ( 'NONE',  ( 1.149999999999999500, 0.1000000000000000100, -1.380073525436772400 ) ) ;
#371 = ADVANCED_FACE ( 'NONE', ( #384 ), #206, .F. ) ;
#372 = VERTEX_POINT ( 'NONE', #515 ) ;
#373 = SURFACE_SIDE_STYLE ('',( #929 ) ) ;
#374 = DIRECTION ( 'NONE',  ( -1.000000000000000000, -1.355252715606882500E-016, 0.0000000000000000000 ) ) ;
#375 = ADVANCED_FACE ( 'NONE', ( #279 ), #118, .T. ) ;
#376 = CARTESIAN_POINT ( 'NONE',  ( -1.149999999999999500, 0.5499999999999998200, 0.6999999999999999600 ) ) ;
#377 = CARTESIAN_POINT ( 'NONE',  ( -1.100000000000000100, 0.03999999999999999400, -1.000000000000000000 ) ) ;
#378 = FACE_OUTER_BOUND ( 'NONE', #224, .T. ) ;
#379 = ORIENTED_EDGE ( 'NONE', *, *, #965, .T. ) ;
#380 = CARTESIAN_POINT ( 'NONE',  ( -1.100000000000000100, 0.03999999999999999400, -1.000000000000000000 ) ) ;
#381 = DIRECTION ( 'NONE',  ( -0.0000000000000000000, -0.0000000000000000000, 1.000000000000000000 ) ) ;
#382 = VERTEX_POINT ( 'NONE', #821 ) ;
#383 = VECTOR ( 'NONE', #367, 1000.000000000000000 ) ;
#384 = FACE_OUTER_BOUND ( 'NONE', #798, .T. ) ;
#385 = FACE_OUTER_BOUND ( 'NONE', #175, .T. ) ;
#386 = LINE ( 'NONE', #395, #314 ) ;
#387 = EDGE_CURVE ( 'NONE', #566, #187, #259, .T. ) ;
#388 = LINE ( 'NONE', #376, #288 ) ;
#389 = LINE ( 'NONE', #61, #56 ) ;
#390 = CARTESIAN_POINT ( 'NONE',  ( 0.8499999999999998700, 0.09999999999999996400, 0.6999999999999999600 ) ) ;
#391 = CARTESIAN_POINT ( 'NONE',  ( 0.8499999999999998700, 0.03999999999999999400, 1.000000000000000000 ) ) ;
#392 = EDGE_CURVE ( 'NONE', #326, #70, #834, .T. ) ;
#393 = DIRECTION ( 'NONE',  ( 4.818676322157796400E-016, -1.000000000000000000, 0.0000000000000000000 ) ) ;
#394 = ORIENTED_EDGE ( 'NONE', *, *, #840, .T. ) ;
#395 = CARTESIAN_POINT ( 'NONE',  ( 0.8499999999999999800, 0.09999999999999996400, -0.6999999999999999600 ) ) ;
#396 = FACE_OUTER_BOUND ( 'NONE', #582, .T. ) ;
#397 = VERTEX_POINT ( 'NONE', #293 ) ;
#398 = CARTESIAN_POINT ( 'NONE',  ( 1.100000000000000100, 0.1000000000000000100, -0.6999999999999999600 ) ) ;
#399 = FACE_OUTER_BOUND ( 'NONE', #329, .T. ) ;
#400 = EDGE_CURVE ( 'NONE', #62, #146, #177, .T. ) ;
#401 = DIRECTION ( 'NONE',  ( -0.0000000000000000000, 0.0000000000000000000, -1.000000000000000000 ) ) ;
#402 = AXIS2_PLACEMENT_3D ( 'NONE', #281, #721, #502 ) ;
#403 = ORIENTED_EDGE ( 'NONE', *, *, #282, .F. ) ;
#404 = DIRECTION ( 'NONE',  ( 0.0000000000000000000, 1.000000000000000000, 0.0000000000000000000 ) ) ;
#405 = ORIENTED_EDGE ( 'NONE', *, *, #270, .T. ) ;
#406 = CARTESIAN_POINT ( 'NONE',  ( 1.149999999999999500, 0.1000000000000000100, 0.6999999999999999600 ) ) ;
#407 = EDGE_CURVE ( 'NONE', #590, #184, #625, .T. ) ;
#408 = DIRECTION ( 'NONE',  ( -1.000000000000000000, 0.0000000000000000000, 0.0000000000000000000 ) ) ;
#409 = LINE ( 'NONE', #132, #941 ) ;
#410 = VECTOR ( 'NONE', #496, 1000.000000000000000 ) ;
#411 = VECTOR ( 'NONE', #855, 1000.000000000000000 ) ;
#412 = EDGE_LOOP ( 'NONE', ( #506, #394, #92, #417 ) ) ;
#413 = CARTESIAN_POINT ( 'NONE',  ( -1.149999999999999500, -1.061822068251501500E-017, -1.380073525436772400 ) ) ;
#414 = LINE ( 'NONE', #391, #574 ) ;
#415 = CARTESIAN_POINT ( 'NONE',  ( 1.149999999999999500, 0.1000000000000000100, -0.6999999999999999600 ) ) ;
#416 = MECHANICAL_DESIGN_GEOMETRIC_PRESENTATION_REPRESENTATION (  '', ( #265 ), #817 ) ;
#417 = ORIENTED_EDGE ( 'NONE', *, *, #731, .T. ) ;
#418 = PLANE ( 'NONE',  #726 ) ;
#419 = VERTEX_POINT ( 'NONE', #226 ) ;
#420 = EDGE_CURVE ( 'NONE', #372, #161, #702, .T. ) ;
#421 = VECTOR ( 'NONE', #703, 1000.000000000000000 ) ;
#422 = ORIENTED_EDGE ( 'NONE', *, *, #350, .T. ) ;
#423 = DIRECTION ( 'NONE',  ( -0.0000000000000000000, 0.0000000000000000000, -1.000000000000000000 ) ) ;
#424 = ORIENTED_EDGE ( 'NONE', *, *, #254, .F. ) ;
#425 = EDGE_CURVE ( 'NONE', #884, #190, #72, .T. ) ;
#426 = DIRECTION ( 'NONE',  ( 1.000000000000000000, 1.278921709445968400E-016, 0.0000000000000000000 ) ) ;
#427 = ORIENTED_EDGE ( 'NONE', *, *, #322, .T. ) ;
#428 = ORIENTED_EDGE ( 'NONE', *, *, #174, .F. ) ;
#429 = PRODUCT_RELATED_PRODUCT_CATEGORY ( 'part', '', ( #332 ) ) ;
#430 = ORIENTED_EDGE ( 'NONE', *, *, #630, .F. ) ;
#431 = CARTESIAN_POINT ( 'NONE',  ( -1.100000000000000100, 0.09999999999999961700, 1.000000000000000000 ) ) ;
#432 = VECTOR ( 'NONE', #712, 1000.000000000000000 ) ;
#433 = CARTESIAN_POINT ( 'NONE',  ( -0.8499999999999999800, 0.03999999999999999400, -0.6999999999999999600 ) ) ;
#434 = VERTEX_POINT ( 'NONE', #368 ) ;
#435 = VECTOR ( 'NONE', #533, 1000.000000000000000 ) ;
#436 = VECTOR ( 'NONE', #747, 1000.000000000000000 ) ;
#437 =( GEOMETRIC_REPRESENTATION_CONTEXT ( 3 ) GLOBAL_UNCERTAINTY_ASSIGNED_CONTEXT ( ( #864 ) ) GLOBAL_UNIT_ASSIGNED_CONTEXT ( ( #445, #124, #284 ) ) REPRESENTATION_CONTEXT ( 'NONE', 'WORKASPACE' ) );
#438 = CARTESIAN_POINT ( 'NONE',  ( -1.149999999999999500, 0.09999999999999971400, -0.6999999999999999600 ) ) ;
#439 = DIRECTION ( 'NONE',  ( -1.000000000000000000, -1.355252715606882800E-016, 0.0000000000000000000 ) ) ;
#440 = EDGE_CURVE ( 'NONE', #275, #382, #811, .T. ) ;
#441 = DIRECTION ( 'NONE',  ( 0.0000000000000000000, 0.0000000000000000000, 1.000000000000000000 ) ) ;
#442 = VECTOR ( 'NONE', #822, 1000.000000000000000 ) ;
#443 = DIRECTION ( 'NONE',  ( 0.0000000000000000000, 0.0000000000000000000, 1.000000000000000000 ) ) ;
#444 = DIRECTION ( 'NONE',  ( 1.000000000000000000, 0.0000000000000000000, 0.0000000000000000000 ) ) ;
#445 =( LENGTH_UNIT ( ) NAMED_UNIT ( * ) SI_UNIT ( .MILLI., .METRE. ) );
#446 = EDGE_LOOP ( 'NONE', ( #424, #556, #901, #887 ) ) ;
#447 = CARTESIAN_POINT ( 'NONE',  ( -1.099999999999999900, 1.899999999999999900, 1.000000000000000000 ) ) ;
#448 = VERTEX_POINT ( 'NONE', #987 ) ;
#449 = ORIENTED_EDGE ( 'NONE', *, *, #872, .F. ) ;
#450 = AXIS2_PLACEMENT_3D ( 'NONE', #603, #86, #853 ) ;
#451 = DIRECTION ( 'NONE',  ( 1.000000000000000000, 0.0000000000000000000, 0.0000000000000000000 ) ) ;
#452 = VECTOR ( 'NONE', #426, 1000.000000000000000 ) ;
#453 = VECTOR ( 'NONE', #645, 1000.000000000000000 ) ;
#454 = EDGE_CURVE ( 'NONE', #290, #709, #968, .T. ) ;
#455 = FACE_OUTER_BOUND ( 'NONE', #554, .T. ) ;
#456 = DIRECTION ( 'NONE',  ( -1.000000000000000000, 0.0000000000000000000, 0.0000000000000000000 ) ) ;
#457 = VECTOR ( 'NONE', #66, 1000.000000000000000 ) ;
#458 = LINE ( 'NONE', #7, #201 ) ;
#459 = CARTESIAN_POINT ( 'NONE',  ( 1.250000000000000000, 0.5500000000000001600, 0.6999999999999999600 ) ) ;
#460 = CARTESIAN_POINT ( 'NONE',  ( 1.149999999999999500, 0.1000000000000000100, 0.6999999999999999600 ) ) ;
#461 = PLANE ( 'NONE',  #724 ) ;
#462 = ORIENTED_EDGE ( 'NONE', *, *, #80, .T. ) ;
#463 = STYLED_ITEM ( 'NONE', ( #916 ), #911 ) ;
#464 = VECTOR ( 'NONE', #240, 1000.000000000000000 ) ;
#465 = EDGE_CURVE ( 'NONE', #587, #168, #158, .T. ) ;
#466 = CARTESIAN_POINT ( 'NONE',  ( -0.8499999999999999800, 2.449293598294708100E-017, -0.6999999999999999600 ) ) ;
#467 = VERTEX_POINT ( 'NONE', #459 ) ;
#468 = CARTESIAN_POINT ( 'NONE',  ( 0.0000000000000000000, 0.0000000000000000000, -1.000000000000000000 ) ) ;
#469 = EDGE_CURVE ( 'NONE', #17, #504, #710, .T. ) ;
#470 = CARTESIAN_POINT ( 'NONE',  ( 1.100000000000000100, 0.03999999999999999400, -1.000000000000000000 ) ) ;
#471 = ORIENTED_EDGE ( 'NONE', *, *, #893, .F. ) ;
#472 = ORIENTED_EDGE ( 'NONE', *, *, #238, .T. ) ;
#473 = VECTOR ( 'NONE', #850, 1000.000000000000000 ) ;
#474 = DIRECTION ( 'NONE',  ( 0.0000000000000000000, 0.0000000000000000000, -1.000000000000000000 ) ) ;
#475 = ORIENTED_EDGE ( 'NONE', *, *, #26, .F. ) ;
#476 = VECTOR ( 'NONE', #182, 1000.000000000000000 ) ;
#477 = CARTESIAN_POINT ( 'NONE',  ( 1.149999999999999500, 0.1000000000000000100, 0.6999999999999999600 ) ) ;
#478 = ORIENTED_EDGE ( 'NONE', *, *, #178, .F. ) ;
#479 = VECTOR ( 'NONE', #148, 1000.000000000000000 ) ;
#480 = ORIENTED_EDGE ( 'NONE', *, *, #400, .T. ) ;
#481 = FACE_OUTER_BOUND ( 'NONE', #446, .T. ) ;
#482 = DIRECTION ( 'NONE',  ( 0.0000000000000000000, 1.000000000000000000, 0.0000000000000000000 ) ) ;
#483 = LINE ( 'NONE', #28, #255 ) ;
#484 = ORIENTED_EDGE ( 'NONE', *, *, #238, .F. ) ;
#485 = LINE ( 'NONE', #920, #411 ) ;
#486 = EDGE_CURVE ( 'NONE', #273, #587, #543, .T. ) ;
#487 = CARTESIAN_POINT ( 'NONE',  ( 1.100000000000000100, 0.03999999999999999400, 1.000000000000000000 ) ) ;
#488 = PLANE ( 'NONE',  #317 ) ;
#489 = FILL_AREA_STYLE ('',( #632 ) ) ;
#490 = VERTEX_POINT ( 'NONE', #662 ) ;
#491 = ORIENTED_EDGE ( 'NONE', *, *, #551, .T. ) ;
#492 = CARTESIAN_POINT ( 'NONE',  ( -1.100000000000000100, 0.03999999999999999400, 0.6999999999999999600 ) ) ;
#493 = EDGE_LOOP ( 'NONE', ( #910, #621, #777, #475 ) ) ;
#494 = VECTOR ( 'NONE', #242, 1000.000000000000000 ) ;
#495 = ORIENTED_EDGE ( 'NONE', *, *, #98, .F. ) ;
#496 = DIRECTION ( 'NONE',  ( -1.000000000000000000, -1.170371888848738100E-016, 0.0000000000000000000 ) ) ;
#497 = PRESENTATION_LAYER_ASSIGNMENT (  '', '', ( #781 ) ) ;
#498 = ORIENTED_EDGE ( 'NONE', *, *, #950, .F. ) ;
#499 = DIRECTION ( 'NONE',  ( -1.000000000000000000, 0.0000000000000000000, 0.0000000000000000000 ) ) ;
#500 = EDGE_CURVE ( 'NONE', #640, #275, #192, .T. ) ;
#501 = DIRECTION ( 'NONE',  ( 0.0000000000000000000, 0.0000000000000000000, 1.000000000000000000 ) ) ;
#502 = DIRECTION ( 'NONE',  ( 1.000000000000000000, 1.170371888848738100E-016, 0.0000000000000000000 ) ) ;
#503 = VECTOR ( 'NONE', #628, 1000.000000000000000 ) ;
#504 = VERTEX_POINT ( 'NONE', #71 ) ;
#505 = APPLICATION_PROTOCOL_DEFINITION ( 'draft international standard', 'automotive_design', 1998, #888 ) ;
#506 = ORIENTED_EDGE ( 'NONE', *, *, #946, .F. ) ;
#507 = FACE_OUTER_BOUND ( 'NONE', #592, .T. ) ;
#508 = DIRECTION ( 'NONE',  ( -1.000000000000000000, 0.0000000000000000000, 0.0000000000000000000 ) ) ;
#509 = AXIS2_PLACEMENT_3D ( 'NONE', #789, #754, #451 ) ;
#510 = AXIS2_PLACEMENT_3D ( 'NONE', #544, #931, #604 ) ;
#511 = ADVANCED_FACE ( 'NONE', ( #378 ), #181, .T. ) ;
#512 = ORIENTED_EDGE ( 'NONE', *, *, #933, .T. ) ;
#513 = DIRECTION ( 'NONE',  ( 0.0000000000000000000, 0.0000000000000000000, 1.000000000000000000 ) ) ;
#514 = ORIENTED_EDGE ( 'NONE', *, *, #322, .F. ) ;
#515 = CARTESIAN_POINT ( 'NONE',  ( -0.8499999999999999800, 0.09999999999999975600, 0.6999999999999999600 ) ) ;
#516 = EDGE_CURVE ( 'NONE', #606, #550, #388, .T. ) ;
#517 = CARTESIAN_POINT ( 'NONE',  ( 0.8499999999999999800, 0.09999999999999996400, -0.6999999999999999600 ) ) ;
#518 = ORIENTED_EDGE ( 'NONE', *, *, #107, .F. ) ;
#519 = CARTESIAN_POINT ( 'NONE',  ( -1.149999999999999500, 0.09999999999999971400, -1.380073525436772400 ) ) ;
#520 = ADVANCED_FACE ( 'NONE', ( #588 ), #673, .F. ) ;
#521 = VERTEX_POINT ( 'NONE', #898 ) ;
#522 = DIRECTION ( 'NONE',  ( 1.000000000000000000, 0.0000000000000000000, 0.0000000000000000000 ) ) ;
#523 = DIRECTION ( 'NONE',  ( 1.000000000000000000, 1.278921709445968400E-016, 0.0000000000000000000 ) ) ;
#524 = FACE_OUTER_BOUND ( 'NONE', #989, .T. ) ;
#525 = DIRECTION ( 'NONE',  ( -1.165808787618822000E-016, -1.000000000000000000, 0.0000000000000000000 ) ) ;
#526 = ADVANCED_FACE ( 'NONE', ( #234 ), #318, .F. ) ;
#527 = PRODUCT_DEFINITION_SHAPE ( 'NONE', 'NONE',  #276 ) ;
#528 = CARTESIAN_POINT ( 'NONE',  ( 0.8499999999999999800, 0.09999999999999996400, 0.6999999999999999600 ) ) ;
#529 = ORIENTED_EDGE ( 'NONE', *, *, #141, .T. ) ;
#530 = ADVANCED_FACE ( 'NONE', ( #76 ), #540, .F. ) ;
#531 = CARTESIAN_POINT ( 'NONE',  ( 1.149999999999999500, 0.1000000000000000100, -0.6999999999999999600 ) ) ;
#532 = ORIENTED_EDGE ( 'NONE', *, *, #551, .F. ) ;
#533 = DIRECTION ( 'NONE',  ( 0.0000000000000000000, -1.000000000000000000, 0.0000000000000000000 ) ) ;
#534 = LINE ( 'NONE', #431, #960 ) ;
#535 = ORIENTED_EDGE ( 'NONE', *, *, #236, .F. ) ;
#536 = DIRECTION ( 'NONE',  ( -4.818676322157795400E-016, -1.000000000000000000, 0.0000000000000000000 ) ) ;
#537 = VECTOR ( 'NONE', #584, 1000.000000000000000 ) ;
#538 = EDGE_CURVE ( 'NONE', #914, #629, #844, .T. ) ;
#539 = ORIENTED_EDGE ( 'NONE', *, *, #806, .F. ) ;
#540 = PLANE ( 'NONE',  #944 ) ;
#541 = ORIENTED_EDGE ( 'NONE', *, *, #285, .F. ) ;
#542 = PRODUCT_DEFINITION_CONTEXT ( 'detailed design', #888, 'design' ) ;
#543 = LINE ( 'NONE', #601, #578 ) ;
#544 = CARTESIAN_POINT ( 'NONE',  ( -1.099999999999999900, 1.899999999999999900, 1.000000000000000000 ) ) ;
#545 = ORIENTED_EDGE ( 'NONE', *, *, #976, .F. ) ;
#546 = VECTOR ( 'NONE', #746, 1000.000000000000000 ) ;
#547 = CARTESIAN_POINT ( 'NONE',  ( 0.8499999999999999800, 2.326828918379971400E-016, 0.6999999999999999600 ) ) ;
#548 = AXIS2_PLACEMENT_3D ( 'NONE', #718, #344, #787 ) ;
#549 = CARTESIAN_POINT ( 'NONE',  ( 0.8499999999999999800, 0.03999999999999999400, 0.6999999999999999600 ) ) ;
#550 = VERTEX_POINT ( 'NONE', #96 ) ;
#551 = EDGE_CURVE ( 'NONE', #467, #397, #362, .T. ) ;
#552 = ORIENTED_EDGE ( 'NONE', *, *, #893, .T. ) ;
#553 = CARTESIAN_POINT ( 'NONE',  ( 1.149999999999999500, 0.1000000000000000100, -0.6999999999999999600 ) ) ;
#554 = EDGE_LOOP ( 'NONE', ( #930, #4, #166, #139 ) ) ;
#555 = SURFACE_STYLE_FILL_AREA ( #489 ) ;
#556 = ORIENTED_EDGE ( 'NONE', *, *, #950, .T. ) ;
#557 = CARTESIAN_POINT ( 'NONE',  ( -1.100000000000000100, 0.03999999999999999400, 1.000000000000000000 ) ) ;
#558 = EDGE_CURVE ( 'NONE', #813, #361, #188, .T. ) ;
#559 = CARTESIAN_POINT ( 'NONE',  ( -0.8499999999999999800, 0.09999999999999975600, -0.6999999999999999600 ) ) ;
#560 = ORIENTED_EDGE ( 'NONE', *, *, #965, .F. ) ;
#561 = SURFACE_STYLE_USAGE ( .BOTH. , #565 ) ;
#562 = ORIENTED_EDGE ( 'NONE', *, *, #440, .F. ) ;
#563 = DIRECTION ( 'NONE',  ( -0.0000000000000000000, -0.0000000000000000000, -1.000000000000000000 ) ) ;
#564 = LINE ( 'NONE', #215, #436 ) ;
#565 = SURFACE_SIDE_STYLE ('',( #555 ) ) ;
#566 = VERTEX_POINT ( 'NONE', #398 ) ;
#567 = DIRECTION ( 'NONE',  ( -0.0000000000000000000, -0.0000000000000000000, -1.000000000000000000 ) ) ;
#568 = ORIENTED_EDGE ( 'NONE', *, *, #879, .T. ) ;
#569 = VECTOR ( 'NONE', #737, 1000.000000000000000 ) ;
#570 = LINE ( 'NONE', #320, #809 ) ;
#571 = CARTESIAN_POINT ( 'NONE',  ( 1.100000000000000100, 0.03999999999999999400, 1.000000000000000000 ) ) ;
#572 = LINE ( 'NONE', #91, #52 ) ;
#573 = ORIENTED_EDGE ( 'NONE', *, *, #558, .T. ) ;
#574 = VECTOR ( 'NONE', #319, 1000.000000000000000 ) ;
#575 = APPLICATION_CONTEXT ( 'automotive_design' ) ;
#576 = CARTESIAN_POINT ( 'NONE',  ( 1.249999999999999600, 0.09999999999999997800, -1.380073525436772400 ) ) ;
#577 = EDGE_CURVE ( 'NONE', #884, #490, #570, .T. ) ;
#578 = VECTOR ( 'NONE', #299, 1000.000000000000000 ) ;
#579 = CARTESIAN_POINT ( 'NONE',  ( -1.149999999999999500, 0.09999999999999971400, -1.380073525436772400 ) ) ;
#580 = ADVANCED_FACE ( 'NONE', ( #262 ), #620, .T. ) ;
#581 = LINE ( 'NONE', #557, #84 ) ;
#582 = EDGE_LOOP ( 'NONE', ( #719, #753, #65, #541 ) ) ;
#583 = DIRECTION ( 'NONE',  ( 0.0000000000000000000, -1.000000000000000000, 0.0000000000000000000 ) ) ;
#584 = DIRECTION ( 'NONE',  ( 0.0000000000000000000, 0.0000000000000000000, 1.000000000000000000 ) ) ;
#585 = DIRECTION ( 'NONE',  ( -1.000000000000000000, -1.355252715606882500E-016, 0.0000000000000000000 ) ) ;
#586 = DIRECTION ( 'NONE',  ( 4.818676322157796400E-016, -1.000000000000000000, 0.0000000000000000000 ) ) ;
#587 = VERTEX_POINT ( 'NONE', #237 ) ;
#588 = FACE_OUTER_BOUND ( 'NONE', #949, .T. ) ;
#589 = ADVANCED_FACE ( 'NONE', ( #396 ), #82, .F. ) ;
#590 = VERTEX_POINT ( 'NONE', #610 ) ;
#591 = UNCERTAINTY_MEASURE_WITH_UNIT (LENGTH_MEASURE( 1.000000000000000100E-005 ), #635, 'distance_accuracy_value', 'NONE');
#592 = EDGE_LOOP ( 'NONE', ( #274, #932, #214, #266 ) ) ;
#593 = EDGE_CURVE ( 'NONE', #184, #914, #644, .T. ) ;
#594 = VECTOR ( 'NONE', #127, 1000.000000000000000 ) ;
#595 = LINE ( 'NONE', #272, #452 ) ;
#596 = DIRECTION ( 'NONE',  ( 1.000000000000000000, 0.0000000000000000000, 0.0000000000000000000 ) ) ;
#597 = DIRECTION ( 'NONE',  ( 0.0000000000000000000, 0.0000000000000000000, 1.000000000000000000 ) ) ;
#598 = ADVANCED_FACE ( 'NONE', ( #613 ), #689, .T. ) ;
#599 = LINE ( 'NONE', #768, #233 ) ;
#600 = FACE_OUTER_BOUND ( 'NONE', #690, .T. ) ;
#601 = CARTESIAN_POINT ( 'NONE',  ( 1.100000000000000100, 1.900000000000000100, 1.000000000000000000 ) ) ;
#602 = PLANE ( 'NONE',  #838 ) ;
#603 = CARTESIAN_POINT ( 'NONE',  ( -1.149999999999999500, 0.09999999999999971400, 0.6999999999999999600 ) ) ;
#604 = DIRECTION ( 'NONE',  ( 1.165808787618822000E-016, 1.000000000000000000, 0.0000000000000000000 ) ) ;
#605 = ORIENTED_EDGE ( 'NONE', *, *, #516, .T. ) ;
#606 = VERTEX_POINT ( 'NONE', #922 ) ;
#607 = AXIS2_PLACEMENT_3D ( 'NONE', #553, #778, #16 ) ;
#608 = CARTESIAN_POINT ( 'NONE',  ( -0.8499999999999999800, 2.449293598294707800E-017, -1.380073525436772400 ) ) ;
#609 = EDGE_CURVE ( 'NONE', #352, #434, #848, .T. ) ;
#610 = CARTESIAN_POINT ( 'NONE',  ( -1.100000000000000100, 0.09999999999999971400, -0.6999999999999999600 ) ) ;
#611 = DIRECTION ( 'NONE',  ( 0.0000000000000000000, -1.000000000000000000, 0.0000000000000000000 ) ) ;
#612 = LINE ( 'NONE', #947, #725 ) ;
#613 = FACE_OUTER_BOUND ( 'NONE', #129, .T. ) ;
#614 = CARTESIAN_POINT ( 'NONE',  ( -0.8499999999999999800, 0.09999999999999975600, -0.6999999999999999600 ) ) ;
#615 = DIRECTION ( 'NONE',  ( 0.0000000000000000000, 0.0000000000000000000, 1.000000000000000000 ) ) ;
#616 = CIRCLE ( 'NONE', #186, 0.1000000000000000500 ) ;
#617 = CARTESIAN_POINT ( 'NONE',  ( -0.8499999999999999800, 0.09999999999999975600, -0.6999999999999999600 ) ) ;
#618 = PLANE ( 'NONE',  #510 ) ;
#619 = ORIENTED_EDGE ( 'NONE', *, *, #925, .F. ) ;
#620 = PLANE ( 'NONE',  #871 ) ;
#621 = ORIENTED_EDGE ( 'NONE', *, *, #174, .T. ) ;
#622 = ORIENTED_EDGE ( 'NONE', *, *, #21, .T. ) ;
#623 = LINE ( 'NONE', #706, #432 ) ;
#624 = FACE_OUTER_BOUND ( 'NONE', #117, .T. ) ;
#625 = LINE ( 'NONE', #303, #756 ) ;
#626 = FACE_OUTER_BOUND ( 'NONE', #339, .T. ) ;
#627 = CARTESIAN_POINT ( 'NONE',  ( 1.249999999999999800, 0.09999999999999996400, -1.380073525436772400 ) ) ;
#628 = DIRECTION ( 'NONE',  ( -0.0000000000000000000, -0.0000000000000000000, -1.000000000000000000 ) ) ;
#629 = VERTEX_POINT ( 'NONE', #617 ) ;
#630 = EDGE_CURVE ( 'NONE', #361, #190, #572, .T. ) ;
#631 = ORIENTED_EDGE ( 'NONE', *, *, #141, .F. ) ;
#632 = FILL_AREA_STYLE_COLOUR ( '', #752 ) ;
#633 = VECTOR ( 'NONE', #81, 1000.000000000000000 ) ;
#634 = CARTESIAN_POINT ( 'NONE',  ( -0.8499999999999999800, 0.09999999999999975600, -0.6999999999999999600 ) ) ;
#635 =( LENGTH_UNIT ( ) NAMED_UNIT ( * ) SI_UNIT ( .MILLI., .METRE. ) );
#636 = AXIS2_PLACEMENT_3D ( 'NONE', #649, #808, #363 ) ;
#637 = CARTESIAN_POINT ( 'NONE',  ( -1.250000000000000000, 0.5499999999999998200, -0.6999999999999999600 ) ) ;
#638 = ORIENTED_EDGE ( 'NONE', *, *, #647, .F. ) ;
#639 = ORIENTED_EDGE ( 'NONE', *, *, #749, .T. ) ;
#640 = VERTEX_POINT ( 'NONE', #390 ) ;
#641 = CLOSED_SHELL ( 'NONE', ( #308, #305, #53, #985, #979, #580, #992, #598, #210 ) ) ;
#642 =( GEOMETRIC_REPRESENTATION_CONTEXT ( 3 ) GLOBAL_UNCERTAINTY_ASSIGNED_CONTEXT ( ( #961 ) ) GLOBAL_UNIT_ASSIGNED_CONTEXT ( ( #658, #358, #812 ) ) REPRESENTATION_CONTEXT ( 'NONE', 'WORKASPACE' ) );
#643 = LINE ( 'NONE', #559, #286 ) ;
#644 = LINE ( 'NONE', #841, #494 ) ;
#645 = DIRECTION ( 'NONE',  ( 0.0000000000000000000, 0.0000000000000000000, 1.000000000000000000 ) ) ;
#646 = VERTEX_POINT ( 'NONE', #547 ) ;
#647 = EDGE_CURVE ( 'NONE', #190, #606, #97, .T. ) ;
#648 = LINE ( 'NONE', #849, #260 ) ;
#649 = CARTESIAN_POINT ( 'NONE',  ( 0.0000000000000000000, 0.0000000000000000000, 0.0000000000000000000 ) ) ;
#650 = SURFACE_STYLE_FILL_AREA ( #820 ) ;
#651 = VERTEX_POINT ( 'NONE', #466 ) ;
#652 = CARTESIAN_POINT ( 'NONE',  ( -1.149999999999999500, 0.09999999999999971400, -0.6999999999999999600 ) ) ;
#653 = VECTOR ( 'NONE', #676, 1000.000000000000000 ) ;
#654 = VERTEX_POINT ( 'NONE', #93 ) ;
#655 = SURFACE_SIDE_STYLE ('',( #650 ) ) ;
#656 = AXIS2_PLACEMENT_3D ( 'NONE', #797, #499, #715 ) ;
#657 = VECTOR ( 'NONE', #67, 1000.000000000000000 ) ;
#658 =( LENGTH_UNIT ( ) NAMED_UNIT ( * ) SI_UNIT ( .MILLI., .METRE. ) );
#659 = PLANE ( 'NONE',  #761 ) ;
#660 = DIRECTION ( 'NONE',  ( 0.0000000000000000000, 0.0000000000000000000, 1.000000000000000000 ) ) ;
#661 = ORIENTED_EDGE ( 'NONE', *, *, #840, .F. ) ;
#662 = CARTESIAN_POINT ( 'NONE',  ( -1.249999999999999800, 0.09999999999999968600, -0.6999999999999999600 ) ) ;
#663 = DIRECTION ( 'NONE',  ( -0.0000000000000000000, 0.0000000000000000000, 1.000000000000000000 ) ) ;
#664 = ORIENTED_EDGE ( 'NONE', *, *, #128, .T. ) ;
#665 = ORIENTED_EDGE ( 'NONE', *, *, #112, .T. ) ;
#666 = DIRECTION ( 'NONE',  ( 1.000000000000000000, 9.856383386231860100E-017, 0.0000000000000000000 ) ) ;
#667 = CARTESIAN_POINT ( 'NONE',  ( -1.099999999999999900, 1.899999999999999900, 0.6999999999999999600 ) ) ;
#668 = ADVANCED_FACE ( 'NONE', ( #277 ), #461, .T. ) ;
#669 = LINE ( 'NONE', #267, #421 ) ;
#670 = CARTESIAN_POINT ( 'NONE',  ( -1.100000000000000100, 0.03999999999999999400, 0.6999999999999999600 ) ) ;
#671 = LINE ( 'NONE', #917, #257 ) ;
#672 = ADVANCED_FACE ( 'NONE', ( #790 ), #866, .F. ) ;
#673 = PLANE ( 'NONE',  #47 ) ;
#674 = AXIS2_PLACEMENT_3D ( 'NONE', #847, #247, #155 ) ;
#675 = AXIS2_PLACEMENT_3D ( 'NONE', #370, #740, #300 ) ;
#676 = DIRECTION ( 'NONE',  ( -1.000000000000000000, -1.355252715606882500E-016, -0.0000000000000000000 ) ) ;
#677 = CARTESIAN_POINT ( 'NONE',  ( -1.250000000000000000, 0.5499999999999998200, 0.6999999999999999600 ) ) ;
#678 = ORIENTED_EDGE ( 'NONE', *, *, #469, .F. ) ;
#679 = SHAPE_DEFINITION_REPRESENTATION ( #527, #229 ) ;
#680 = CARTESIAN_POINT ( 'NONE',  ( -1.099999999999999900, 1.899999999999999900, -1.000000000000000000 ) ) ;
#681 = DIRECTION ( 'NONE',  ( 1.000000000000000000, 0.0000000000000000000, 0.0000000000000000000 ) ) ;
#682 = ORIENTED_EDGE ( 'NONE', *, *, #354, .T. ) ;
#683 = FACE_OUTER_BOUND ( 'NONE', #170, .T. ) ;
#684 = EDGE_CURVE ( 'NONE', #30, #146, #869, .T. ) ;
#685 = CARTESIAN_POINT ( 'NONE',  ( -0.8499999999999999800, 0.09999999999999975600, 0.6999999999999999600 ) ) ;
#686 = CARTESIAN_POINT ( 'NONE',  ( 1.149999999999999500, 0.1000000000000000100, -0.6999999999999999600 ) ) ;
#687 = EDGE_LOOP ( 'NONE', ( #745, #157, #198, #176 ) ) ;
#688 = VECTOR ( 'NONE', #341, 1000.000000000000000 ) ;
#689 = PLANE ( 'NONE',  #674 ) ;
#690 = EDGE_LOOP ( 'NONE', ( #957, #874, #765, #94 ) ) ;
#691 = DIRECTION ( 'NONE',  ( 1.000000000000000000, 0.0000000000000000000, -0.0000000000000000000 ) ) ;
#692 = ORIENTED_EDGE ( 'NONE', *, *, #21, .F. ) ;
#693 = LINE ( 'NONE', #292, #713 ) ;
#694 = ORIENTED_EDGE ( 'NONE', *, *, #909, .T. ) ;
#695 = PLANE ( 'NONE',  #705 ) ;
#696 = FILL_AREA_STYLE_COLOUR ( '', #773 ) ;
#697 = ORIENTED_EDGE ( 'NONE', *, *, #407, .F. ) ;
#698 = EDGE_CURVE ( 'NONE', #184, #62, #338, .T. ) ;
#699 = DIRECTION ( 'NONE',  ( -0.0000000000000000000, -0.0000000000000000000, -1.000000000000000000 ) ) ;
#700 = CARTESIAN_POINT ( 'NONE',  ( 1.149999999999999500, 0.0000000000000000000, 0.6999999999999999600 ) ) ;
#701 = FACE_OUTER_BOUND ( 'NONE', #412, .T. ) ;
#702 = LINE ( 'NONE', #739, #546 ) ;
#703 = DIRECTION ( 'NONE',  ( 0.0000000000000000000, 0.0000000000000000000, 1.000000000000000000 ) ) ;
#704 = LINE ( 'NONE', #134, #795 ) ;
#705 = AXIS2_PLACEMENT_3D ( 'NONE', #862, #408, #937 ) ;
#706 = CARTESIAN_POINT ( 'NONE',  ( -1.149999999999999500, 0.5499999999999998200, -0.6999999999999999600 ) ) ;
#707 = EDGE_LOOP ( 'NONE', ( #720, #924, #892, #428, #742, #545, #856, #568, #137, #956, #252, #480 ) ) ;
#708 = EDGE_CURVE ( 'NONE', #891, #813, #881, .T. ) ;
#709 = VERTEX_POINT ( 'NONE', #549 ) ;
#710 = LINE ( 'NONE', #750, #116 ) ;
#711 = DIRECTION ( 'NONE',  ( -1.000000000000000000, 0.0000000000000000000, 0.0000000000000000000 ) ) ;
#712 = DIRECTION ( 'NONE',  ( 0.0000000000000000000, 1.000000000000000000, 0.0000000000000000000 ) ) ;
#713 = VECTOR ( 'NONE', #54, 1000.000000000000000 ) ;
#714 = ORIENTED_EDGE ( 'NONE', *, *, #420, .F. ) ;
#715 = DIRECTION ( 'NONE',  ( 0.0000000000000000000, 0.0000000000000000000, 1.000000000000000000 ) ) ;
#716 = VERTEX_POINT ( 'NONE', #700 ) ;
#717 = CARTESIAN_POINT ( 'NONE',  ( -1.099999999999999900, 1.899999999999999900, 1.000000000000000000 ) ) ;
#718 = CARTESIAN_POINT ( 'NONE',  ( 1.250000000000000000, 0.5500000000000001600, -1.380073525436772400 ) ) ;
#719 = ORIENTED_EDGE ( 'NONE', *, *, #90, .F. ) ;
#720 = ORIENTED_EDGE ( 'NONE', *, *, #684, .F. ) ;
#721 = DIRECTION ( 'NONE',  ( 1.170371888848738100E-016, -1.000000000000000000, 0.0000000000000000000 ) ) ;
#722 = MANIFOLD_SOLID_BREP ( 'Cut-Extrude1', #349 ) ;
#723 = LINE ( 'NONE', #727, #594 ) ;
#724 = AXIS2_PLACEMENT_3D ( 'NONE', #477, #172, #948 ) ;
#725 = VECTOR ( 'NONE', #404, 1000.000000000000000 ) ;
#726 = AXIS2_PLACEMENT_3D ( 'NONE', #938, #482, #771 ) ;
#727 = CARTESIAN_POINT ( 'NONE',  ( -1.100000000000000100, 0.03999999999999999400, 1.000000000000000000 ) ) ;
#728 = VECTOR ( 'NONE', #585, 1000.000000000000000 ) ;
#729 = DIRECTION ( 'NONE',  ( 0.0000000000000000000, -1.000000000000000000, 0.0000000000000000000 ) ) ;
#730 = FILL_AREA_STYLE ('',( #365 ) ) ;
#731 = EDGE_CURVE ( 'NONE', #646, #640, #612, .T. ) ;
#732 = ORIENTED_EDGE ( 'NONE', *, *, #254, .T. ) ;
#733 = APPLICATION_PROTOCOL_DEFINITION ( 'draft international standard', 'automotive_design', 1998, #575 ) ;
#734 = FACE_OUTER_BOUND ( 'NONE', #342, .T. ) ;
#735 = DIRECTION ( 'NONE',  ( 0.0000000000000000000, -1.000000000000000000, 0.0000000000000000000 ) ) ;
#736 = DIRECTION ( 'NONE',  ( 0.0000000000000000000, 0.0000000000000000000, 1.000000000000000000 ) ) ;
#737 = DIRECTION ( 'NONE',  ( -1.000000000000000000, -1.355252715606882800E-016, 0.0000000000000000000 ) ) ;
#738 = LINE ( 'NONE', #571, #915 ) ;
#739 = CARTESIAN_POINT ( 'NONE',  ( -0.8499999999999999800, 0.09999999999999975600, 0.6999999999999999600 ) ) ;
#740 = DIRECTION ( 'NONE',  ( -1.355252715606882800E-016, 1.000000000000000000, 0.0000000000000000000 ) ) ;
#741 = VECTOR ( 'NONE', #536, 1000.000000000000000 ) ;
#742 = ORIENTED_EDGE ( 'NONE', *, *, #933, .F. ) ;
#743 = ADVANCED_FACE ( 'NONE', ( #816 ), #330, .T. ) ;
#744 = PLANE ( 'NONE',  #970 ) ;
#745 = ORIENTED_EDGE ( 'NONE', *, *, #486, .T. ) ;
#746 = DIRECTION ( 'NONE',  ( 0.0000000000000000000, -1.000000000000000000, 0.0000000000000000000 ) ) ;
#747 = DIRECTION ( 'NONE',  ( -1.000000000000000000, -1.355252715606882500E-016, -0.0000000000000000000 ) ) ;
#748 = ADVANCED_FACE ( 'NONE', ( #831 ), #102, .T. ) ;
#749 = EDGE_CURVE ( 'NONE', #249, #382, #669, .T. ) ;
#750 = CARTESIAN_POINT ( 'NONE',  ( 1.100000000000000100, 1.900000000000000100, 0.6999999999999999600 ) ) ;
#751 = FACE_OUTER_BOUND ( 'NONE', #769, .T. ) ;
#752 = COLOUR_RGB ( '',0.7921568627450980000, 0.8196078431372548800, 0.9333333333333333500 ) ;
#753 = ORIENTED_EDGE ( 'NONE', *, *, #400, .F. ) ;
#754 = DIRECTION ( 'NONE',  ( -0.0000000000000000000, 0.0000000000000000000, 1.000000000000000000 ) ) ;
#755 = CARTESIAN_POINT ( 'NONE',  ( -0.8499999999999999800, 0.09999999999999975600, -1.380073525436772400 ) ) ;
#756 = VECTOR ( 'NONE', #904, 1000.000000000000000 ) ;
#757 = CARTESIAN_POINT ( 'NONE',  ( -1.100000000000000100, 0.03999999999999999400, -0.7000000000000000700 ) ) ;
#758 = CARTESIAN_POINT ( 'NONE',  ( 1.250000000000000000, 0.5500000000000001600, -0.6999999999999999600 ) ) ;
#759 = DIRECTION ( 'NONE',  ( 1.000000000000000000, 1.355252715606882800E-016, 0.0000000000000000000 ) ) ;
#760 = CARTESIAN_POINT ( 'NONE',  ( 1.100000000000000100, 0.1000000000000000100, 0.6999999999999999600 ) ) ;
#761 = AXIS2_PLACEMENT_3D ( 'NONE', #978, #828, #523 ) ;
#762 = CARTESIAN_POINT ( 'NONE',  ( 1.249999999999999800, 0.09999999999999996400, 0.6999999999999999600 ) ) ;
#763 = VECTOR ( 'NONE', #309, 1000.000000000000000 ) ;
#764 = DIRECTION ( 'NONE',  ( -0.0000000000000000000, 0.0000000000000000000, -1.000000000000000000 ) ) ;
#765 = ORIENTED_EDGE ( 'NONE', *, *, #38, .T. ) ;
#766 = VECTOR ( 'NONE', #441, 1000.000000000000000 ) ;
#767 = ORIENTED_EDGE ( 'NONE', *, *, #75, .T. ) ;
#768 = CARTESIAN_POINT ( 'NONE',  ( 0.8499999999999999800, 2.326828918379971400E-016, 0.6999999999999999600 ) ) ;
#769 = EDGE_LOOP ( 'NONE', ( #34, #786, #994, #767 ) ) ;
#770 = VECTOR ( 'NONE', #381, 1000.000000000000000 ) ;
#771 = DIRECTION ( 'NONE',  ( 0.0000000000000000000, -0.0000000000000000000, 1.000000000000000000 ) ) ;
#772 = ORIENTED_EDGE ( 'NONE', *, *, #946, .T. ) ;
#773 = COLOUR_RGB ( '',0.7921568627450980000, 0.8196078431372548800, 0.9333333333333333500 ) ;
#774 = CARTESIAN_POINT ( 'NONE',  ( -1.100000000000000100, 0.03999999999999999400, -0.7000000000000000700 ) ) ;
#775 = VECTOR ( 'NONE', #189, 1000.000000000000000 ) ;
#776 = VECTOR ( 'NONE', #699, 1000.000000000000000 ) ;
#777 = ORIENTED_EDGE ( 'NONE', *, *, #454, .F. ) ;
#778 = DIRECTION ( 'NONE',  ( -0.0000000000000000000, 0.0000000000000000000, -1.000000000000000000 ) ) ;
#779 = ORIENTED_EDGE ( 'NONE', *, *, #354, .F. ) ;
#780 = VECTOR ( 'NONE', #162, 1000.000000000000000 ) ;
#781 = STYLED_ITEM ( 'NONE', ( #29 ), #722 ) ;
#782 = AXIS2_PLACEMENT_3D ( 'NONE', #517, #74, #663 ) ;
#783 = DIRECTION ( 'NONE',  ( 4.818676322157795400E-016, 1.000000000000000000, 0.0000000000000000000 ) ) ;
#784 = ORIENTED_EDGE ( 'NONE', *, *, #343, .F. ) ;
#785 = EDGE_CURVE ( 'NONE', #448, #896, #581, .T. ) ;
#786 = ORIENTED_EDGE ( 'NONE', *, *, #593, .T. ) ;
#787 = DIRECTION ( 'NONE',  ( 0.0000000000000000000, 0.0000000000000000000, 1.000000000000000000 ) ) ;
#788 = VERTEX_POINT ( 'NONE', #867 ) ;
#789 = CARTESIAN_POINT ( 'NONE',  ( 0.0000000000000000000, 0.0000000000000000000, 1.000000000000000000 ) ) ;
#790 = FACE_OUTER_BOUND ( 'NONE', #164, .T. ) ;
#791 = ORIENTED_EDGE ( 'NONE', *, *, #865, .T. ) ;
#792 = CIRCLE ( 'NONE', #151, 0.1000000000000000500 ) ;
#793 = ORIENTED_EDGE ( 'NONE', *, *, #51, .F. ) ;
#794 =( NAMED_UNIT ( * ) PLANE_ANGLE_UNIT ( ) SI_UNIT ( $, .RADIAN. ) );
#795 = VECTOR ( 'NONE', #374, 1000.000000000000000 ) ;
#796 = CARTESIAN_POINT ( 'NONE',  ( -1.099999999999999900, 1.899999999999999900, -1.000000000000000000 ) ) ;
#797 = CARTESIAN_POINT ( 'NONE',  ( 1.149999999999999500, 0.5500000000000001600, -1.380073525436772400 ) ) ;
#798 = EDGE_LOOP ( 'NONE', ( #355, #223, #857, #471 ) ) ;
#799 = ORIENTED_EDGE ( 'NONE', *, *, #538, .F. ) ;
#800 = DIRECTION ( 'NONE',  ( 0.0000000000000000000, 1.000000000000000000, 0.0000000000000000000 ) ) ;
#801 = ORIENTED_EDGE ( 'NONE', *, *, #80, .F. ) ;
#802 = AXIS2_PLACEMENT_3D ( 'NONE', #579, #660, #204 ) ;
#803 = ORIENTED_EDGE ( 'NONE', *, *, #647, .T. ) ;
#804 = CARTESIAN_POINT ( 'NONE',  ( 0.8499999999999999800, 0.09999999999999996400, -0.6999999999999999600 ) ) ;
#805 = VECTOR ( 'NONE', #121, 1000.000000000000000 ) ;
#806 = EDGE_CURVE ( 'NONE', #168, #448, #483, .T. ) ;
#807 = VECTOR ( 'NONE', #180, 1000.000000000000000 ) ;
#808 = DIRECTION ( 'NONE',  ( 0.0000000000000000000, 0.0000000000000000000, 1.000000000000000000 ) ) ;
#809 = VECTOR ( 'NONE', #393, 1000.000000000000000 ) ;
#810 = CARTESIAN_POINT ( 'NONE',  ( -0.8499999999999999800, 0.09999999999999975600, 0.6999999999999999600 ) ) ;
#811 = LINE ( 'NONE', #221, #298 ) ;
#812 =( NAMED_UNIT ( * ) SI_UNIT ( $, .STERADIAN. ) SOLID_ANGLE_UNIT ( ) );
#813 = VERTEX_POINT ( 'NONE', #103 ) ;
#814 = CARTESIAN_POINT ( 'NONE',  ( -1.149999999999999500, 0.09999999999999971400, -0.6999999999999999600 ) ) ;
#815 =( GEOMETRIC_REPRESENTATION_CONTEXT ( 3 ) GLOBAL_UNCERTAINTY_ASSIGNED_CONTEXT ( ( #827 ) ) GLOBAL_UNIT_ASSIGNED_CONTEXT ( ( #858, #19, #179 ) ) REPRESENTATION_CONTEXT ( 'NONE', 'WORKASPACE' ) );
#816 = FACE_OUTER_BOUND ( 'NONE', #347, .T. ) ;
#817 =( GEOMETRIC_REPRESENTATION_CONTEXT ( 3 ) GLOBAL_UNCERTAINTY_ASSIGNED_CONTEXT ( ( #591 ) ) GLOBAL_UNIT_ASSIGNED_CONTEXT ( ( #635, #111, #875 ) ) REPRESENTATION_CONTEXT ( 'NONE', 'WORKASPACE' ) );
#818 = CARTESIAN_POINT ( 'NONE',  ( -1.149999999999999500, 0.5499999999999998200, -0.6999999999999999600 ) ) ;
#819 = EDGE_LOOP ( 'NONE', ( #927, #535, #39, #943 ) ) ;
#820 = FILL_AREA_STYLE ('',( #696 ) ) ;
#821 = CARTESIAN_POINT ( 'NONE',  ( 1.149999999999999500, 0.5500000000000001600, 0.6999999999999999600 ) ) ;
#822 = DIRECTION ( 'NONE',  ( -1.000000000000000000, 0.0000000000000000000, 0.0000000000000000000 ) ) ;
#823 = CARTESIAN_POINT ( 'NONE',  ( 1.149999999999999500, 0.1000000000000000100, -1.380073525436772400 ) ) ;
#824 = VERTEX_POINT ( 'NONE', #27 ) ;
#825 = EDGE_CURVE ( 'NONE', #651, #854, #643, .T. ) ;
#826 = ORIENTED_EDGE ( 'NONE', *, *, #959, .F. ) ;
#827 = UNCERTAINTY_MEASURE_WITH_UNIT (LENGTH_MEASURE( 1.000000000000000100E-005 ), #858, 'distance_accuracy_value', 'NONE');
#828 = DIRECTION ( 'NONE',  ( 1.278921709445968400E-016, -1.000000000000000000, 0.0000000000000000000 ) ) ;
#829 = ADVANCED_FACE ( 'NONE', ( #701 ), #695, .T. ) ;
#830 = LINE ( 'NONE', #796, #227 ) ;
#831 = FACE_OUTER_BOUND ( 'NONE', #36, .T. ) ;
#832 = CARTESIAN_POINT ( 'NONE',  ( 1.149999999999999500, 0.1000000000000000100, -0.6999999999999999600 ) ) ;
#833 = LINE ( 'NONE', #685, #20 ) ;
#834 = CIRCLE ( 'NONE', #294, 0.1000000000000000500 ) ;
#835 = VECTOR ( 'NONE', #759, 1000.000000000000000 ) ;
#836 = ADVANCED_FACE ( 'NONE', ( #385 ), #951, .T. ) ;
#837 = AXIS2_PLACEMENT_3D ( 'NONE', #415, #934, #256 ) ;
#838 = AXIS2_PLACEMENT_3D ( 'NONE', #3, #764, #311 ) ;
#839 = ORIENTED_EDGE ( 'NONE', *, *, #577, .F. ) ;
#840 = EDGE_CURVE ( 'NONE', #788, #250, #173, .T. ) ;
#841 = CARTESIAN_POINT ( 'NONE',  ( -1.100000000000000100, 0.03999999999999999400, -0.7000000000000000700 ) ) ;
#842 = DIRECTION ( 'NONE',  ( 0.0000000000000000000, 0.0000000000000000000, 1.000000000000000000 ) ) ;
#843 = SURFACE_STYLE_FILL_AREA ( #261 ) ;
#844 = LINE ( 'NONE', #325, #473 ) ;
#845 = EDGE_CURVE ( 'NONE', #250, #646, #6, .T. ) ;
#846 = LINE ( 'NONE', #758, #442 ) ;
#847 = CARTESIAN_POINT ( 'NONE',  ( -1.149999999999999500, 0.5499999999999998200, -1.380073525436772400 ) ) ;
#848 = LINE ( 'NONE', #10, #653 ) ;
#849 = CARTESIAN_POINT ( 'NONE',  ( 1.250000000000000000, 0.5500000000000001600, -1.380073525436772400 ) ) ;
#850 = DIRECTION ( 'NONE',  ( -0.0000000000000000000, 1.000000000000000000, -0.0000000000000000000 ) ) ;
#851 = PRODUCT_DEFINITION_FORMATION_WITH_SPECIFIED_SOURCE ( 'ANY', '', #332, .NOT_KNOWN. ) ;
#852 = ORIENTED_EDGE ( 'NONE', *, *, #708, .T. ) ;
#853 = DIRECTION ( 'NONE',  ( -1.000000000000000000, 0.0000000000000000000, 0.0000000000000000000 ) ) ;
#854 = VERTEX_POINT ( 'NONE', #634 ) ;
#855 = DIRECTION ( 'NONE',  ( 0.0000000000000000000, 0.0000000000000000000, -1.000000000000000000 ) ) ;
#856 = ORIENTED_EDGE ( 'NONE', *, *, #785, .T. ) ;
#857 = ORIENTED_EDGE ( 'NONE', *, *, #609, .T. ) ;
#858 =( LENGTH_UNIT ( ) NAMED_UNIT ( * ) SI_UNIT ( .MILLI., .METRE. ) );
#859 = VERTEX_POINT ( 'NONE', #955 ) ;
#860 = AXIS2_PLACEMENT_3D ( 'NONE', #31, #269, #501 ) ;
#861 = ORIENTED_EDGE ( 'NONE', *, *, #125, .T. ) ;
#862 = CARTESIAN_POINT ( 'NONE',  ( 0.8499999999999999800, 0.09999999999999996400, -1.380073525436772400 ) ) ;
#863 = LINE ( 'NONE', #667, #55 ) ;
#864 = UNCERTAINTY_MEASURE_WITH_UNIT (LENGTH_MEASURE( 1.000000000000000100E-005 ), #445, 'distance_accuracy_value', 'NONE');
#865 = EDGE_CURVE ( 'NONE', #419, #788, #302, .T. ) ;
#866 = PLANE ( 'NONE',  #837 ) ;
#867 = CARTESIAN_POINT ( 'NONE',  ( 0.8499999999999998700, 0.09999999999999996400, -0.6999999999999999600 ) ) ;
#868 = ORIENTED_EDGE ( 'NONE', *, *, #708, .F. ) ;
#869 = LINE ( 'NONE', #487, #776 ) ;
#870 = DIRECTION ( 'NONE',  ( 0.0000000000000000000, 0.0000000000000000000, 1.000000000000000000 ) ) ;
#871 = AXIS2_PLACEMENT_3D ( 'NONE', #755, #926, #401 ) ;
#872 = EDGE_CURVE ( 'NONE', #168, #1, #44, .T. ) ;
#873 = PLANE ( 'NONE',  #860 ) ;
#874 = ORIENTED_EDGE ( 'NONE', *, *, #336, .T. ) ;
#875 =( NAMED_UNIT ( * ) SI_UNIT ( $, .STERADIAN. ) SOLID_ANGLE_UNIT ( ) );
#876 = ORIENTED_EDGE ( 'NONE', *, *, #698, .F. ) ;
#877 = VECTOR ( 'NONE', #908, 1000.000000000000000 ) ;
#878 = CARTESIAN_POINT ( 'NONE',  ( 0.8499999999999999800, 2.326828918379971400E-016, -1.380073525436772400 ) ) ;
#879 = EDGE_CURVE ( 'NONE', #896, #824, #18, .T. ) ;
#880 = PRESENTATION_STYLE_ASSIGNMENT (( #63 ) ) ;
#881 = LINE ( 'NONE', #413, #268 ) ;
#882 = CARTESIAN_POINT ( 'NONE',  ( 1.149999999999999500, 0.1000000000000000100, 0.6999999999999999600 ) ) ;
#883 = ORIENTED_EDGE ( 'NONE', *, *, #392, .F. ) ;
#884 = VERTEX_POINT ( 'NONE', #637 ) ;
#885 = AXIS2_PLACEMENT_3D ( 'NONE', #652, #443, #972 ) ;
#886 = COLOUR_RGB ( '',0.7921568627450980000, 0.8196078431372548800, 0.9333333333333333500 ) ;
#887 = ORIENTED_EDGE ( 'NONE', *, *, #152, .T. ) ;
#888 = APPLICATION_CONTEXT ( 'automotive_design' ) ;
#889 = LINE ( 'NONE', #46, #410 ) ;
#890 = ADVANCED_FACE ( 'NONE', ( #228 ), #954, .F. ) ;
#891 = VERTEX_POINT ( 'NONE', #197 ) ;
#892 = ORIENTED_EDGE ( 'NONE', *, *, #178, .T. ) ;
#893 = EDGE_CURVE ( 'NONE', #590, #434, #534, .T. ) ;
#894 = ADVANCED_FACE ( 'NONE', ( #106 ), #356, .F. ) ;
#895 = PRODUCT_CONTEXT ( 'NONE', #575, 'mechanical' ) ;
#896 = VERTEX_POINT ( 'NONE', #492 ) ;
#897 = SURFACE_STYLE_USAGE ( .BOTH. , #655 ) ;
#898 = CARTESIAN_POINT ( 'NONE',  ( 1.100000000000000100, 1.900000000000000100, -1.000000000000000000 ) ) ;
#899 = CARTESIAN_POINT ( 'NONE',  ( 1.250000000000000000, 0.5500000000000001600, 0.6999999999999999600 ) ) ;
#900 = ORIENTED_EDGE ( 'NONE', *, *, #236, .T. ) ;
#901 = ORIENTED_EDGE ( 'NONE', *, *, #959, .T. ) ;
#902 = ADVANCED_FACE ( 'NONE', ( #624 ), #32, .T. ) ;
#903 = ORIENTED_EDGE ( 'NONE', *, *, #195, .F. ) ;
#904 = DIRECTION ( 'NONE',  ( -1.165808787618822000E-016, -1.000000000000000000, 0.0000000000000000000 ) ) ;
#905 = PLANE ( 'NONE',  #782 ) ;
#906 = ADVANCED_FACE ( 'NONE', ( #199 ), #873, .F. ) ;
#907 = AXIS2_PLACEMENT_3D ( 'NONE', #519, #217, #439 ) ;
#908 = DIRECTION ( 'NONE',  ( -1.000000000000000000, -9.856383386231860100E-017, -0.0000000000000000000 ) ) ;
#909 = EDGE_CURVE ( 'NONE', #161, #813, #889, .T. ) ;
#910 = ORIENTED_EDGE ( 'NONE', *, *, #469, .T. ) ;
#911 = MANIFOLD_SOLID_BREP ( 'Boss-Extrude2[1]', #83 ) ;
#912 = CARTESIAN_POINT ( 'NONE',  ( -1.099999999999999900, 1.899999999999999900, 1.000000000000000000 ) ) ;
#913 = CARTESIAN_POINT ( 'NONE',  ( 1.100000000000000100, 1.900000000000000100, -0.7000000000000000700 ) ) ;
#914 = VERTEX_POINT ( 'NONE', #433 ) ;
#915 = VECTOR ( 'NONE', #37, 1000.000000000000000 ) ;
#916 = PRESENTATION_STYLE_ASSIGNMENT (( #561 ) ) ;
#917 = CARTESIAN_POINT ( 'NONE',  ( -0.8499999999999999800, 0.09999999999999975600, -1.380073525436772400 ) ) ;
#918 = ORIENTED_EDGE ( 'NONE', *, *, #872, .T. ) ;
#919 = DIRECTION ( 'NONE',  ( -4.818676322157796400E-016, 1.000000000000000000, 0.0000000000000000000 ) ) ;
#920 = CARTESIAN_POINT ( 'NONE',  ( 1.100000000000000100, 0.1000000000000000500, 1.000000000000000000 ) ) ;
#921 = AXIS2_PLACEMENT_3D ( 'NONE', #468, #165, #681 ) ;
#922 = CARTESIAN_POINT ( 'NONE',  ( -1.149999999999999500, 0.5499999999999998200, 0.6999999999999999600 ) ) ;
#923 = ORIENTED_EDGE ( 'NONE', *, *, #343, .T. ) ;
#924 = ORIENTED_EDGE ( 'NONE', *, *, #307, .T. ) ;
#925 = EDGE_CURVE ( 'NONE', #587, #521, #357, .T. ) ;
#926 = DIRECTION ( 'NONE',  ( 1.000000000000000000, 0.0000000000000000000, -0.0000000000000000000 ) ) ;
#927 = ORIENTED_EDGE ( 'NONE', *, *, #26, .T. ) ;
#928 = DIRECTION ( 'NONE',  ( 4.818676322157795400E-016, 1.000000000000000000, 0.0000000000000000000 ) ) ;
#929 = SURFACE_STYLE_FILL_AREA ( #730 ) ;
#930 = ORIENTED_EDGE ( 'NONE', *, *, #609, .F. ) ;
#931 = DIRECTION ( 'NONE',  ( 1.000000000000000000, -1.165808787618822000E-016, 0.0000000000000000000 ) ) ;
#932 = ORIENTED_EDGE ( 'NONE', *, *, #577, .T. ) ;
#933 = EDGE_CURVE ( 'NONE', #273, #504, #738, .T. ) ;
#934 = DIRECTION ( 'NONE',  ( -0.0000000000000000000, 0.0000000000000000000, -1.000000000000000000 ) ) ;
#935 = UNCERTAINTY_MEASURE_WITH_UNIT (LENGTH_MEASURE( 1.000000000000000100E-005 ), #271, 'distance_accuracy_value', 'NONE');
#936 = ORIENTED_EDGE ( 'NONE', *, *, #420, .T. ) ;
#937 = DIRECTION ( 'NONE',  ( 0.0000000000000000000, 0.0000000000000000000, 1.000000000000000000 ) ) ;
#938 = CARTESIAN_POINT ( 'NONE',  ( -1.250000000000000000, 0.5499999999999998200, -1.380073525436772400 ) ) ;
#939 = LINE ( 'NONE', #130, #104 ) ;
#940 = DIRECTION ( 'NONE',  ( 1.000000000000000000, -4.818676322157795400E-016, 0.0000000000000000000 ) ) ;
#941 = VECTOR ( 'NONE', #729, 1000.000000000000000 ) ;
#942 = CARTESIAN_POINT ( 'NONE',  ( 1.100000000000000100, 0.03999999999999999400, 1.000000000000000000 ) ) ;
#943 = ORIENTED_EDGE ( 'NONE', *, *, #213, .F. ) ;
#944 = AXIS2_PLACEMENT_3D ( 'NONE', #686, #2, #153 ) ;
#945 = VERTEX_POINT ( 'NONE', #438 ) ;
#946 = EDGE_CURVE ( 'NONE', #788, #640, #337, .T. ) ;
#947 = CARTESIAN_POINT ( 'NONE',  ( 0.8499999999999999800, 0.09999999999999996400, 0.6999999999999999600 ) ) ;
#948 = DIRECTION ( 'NONE',  ( -1.000000000000000000, 0.0000000000000000000, 0.0000000000000000000 ) ) ;
#949 = EDGE_LOOP ( 'NONE', ( #194, #449, #334, #133 ) ) ;
#950 = EDGE_CURVE ( 'NONE', #854, #945, #171, .T. ) ;
#951 = PLANE ( 'NONE',  #656 ) ;
#952 = CARTESIAN_POINT ( 'NONE',  ( 1.100000000000000100, 1.900000000000000100, 1.000000000000000000 ) ) ;
#953 = CARTESIAN_POINT ( 'NONE',  ( 1.149999999999999500, 2.710505431213761100E-016, -0.6999999999999999600 ) ) ;
#954 = PLANE ( 'NONE',  #95 ) ;
#955 = CARTESIAN_POINT ( 'NONE',  ( 0.8499999999999999800, 0.03999999999999999400, -0.6999999999999999600 ) ) ;
#956 = ORIENTED_EDGE ( 'NONE', *, *, #593, .F. ) ;
#957 = ORIENTED_EDGE ( 'NONE', *, *, #845, .F. ) ;
#958 = CARTESIAN_POINT ( 'NONE',  ( 1.149999999999999500, 0.1000000000000000100, -0.6999999999999999600 ) ) ;
#959 = EDGE_CURVE ( 'NONE', #945, #550, #939, .T. ) ;
#960 = VECTOR ( 'NONE', #43, 1000.000000000000000 ) ;
#961 = UNCERTAINTY_MEASURE_WITH_UNIT (LENGTH_MEASURE( 1.000000000000000100E-005 ), #658, 'distance_accuracy_value', 'NONE');
#962 = LINE ( 'NONE', #87, #85 ) ;
#963 = VECTOR ( 'NONE', #522, 1000.000000000000000 ) ;
#964 = VECTOR ( 'NONE', #444, 1000.000000000000000 ) ;
#965 = EDGE_CURVE ( 'NONE', #973, #884, #163, .T. ) ;
#966 = CARTESIAN_POINT ( 'NONE',  ( -1.250000000000000000, 0.5499999999999998200, -0.6999999999999999600 ) ) ;
#967 = ADVANCED_FACE ( 'NONE', ( #751 ), #200, .T. ) ;
#968 = LINE ( 'NONE', #528, #763 ) ;
#969 = AXIS2_PLACEMENT_3D ( 'NONE', #627, #940, #783 ) ;
#970 = AXIS2_PLACEMENT_3D ( 'NONE', #219, #310, #586 ) ;
#971 = ORIENTED_EDGE ( 'NONE', *, *, #500, .T. ) ;
#972 = DIRECTION ( 'NONE',  ( 1.000000000000000000, 0.0000000000000000000, -0.0000000000000000000 ) ) ;
#973 = VERTEX_POINT ( 'NONE', #818 ) ;
#974 = DIRECTION ( 'NONE',  ( -1.000000000000000000, -1.355252715606882500E-016, 0.0000000000000000000 ) ) ;
#975 = CARTESIAN_POINT ( 'NONE',  ( -1.250000000000000000, 0.5499999999999998200, -1.380073525436772400 ) ) ;
#976 = EDGE_CURVE ( 'NONE', #448, #273, #723, .T. ) ;
#977 = ORIENTED_EDGE ( 'NONE', *, *, #440, .T. ) ;
#978 = CARTESIAN_POINT ( 'NONE',  ( 0.8499999999999999800, 2.326828918379971400E-016, -1.380073525436772400 ) ) ;
#979 = ADVANCED_FACE ( 'NONE', ( #119 ), #981, .T. ) ;
#980 = LINE ( 'NONE', #899, #964 ) ;
#981 = PLANE ( 'NONE',  #402 ) ;
#982 = DIRECTION ( 'NONE',  ( 9.856383386231860100E-017, -1.000000000000000000, 0.0000000000000000000 ) ) ;
#983 = CARTESIAN_POINT ( 'NONE',  ( 1.249999999999999600, 0.09999999999999997800, -0.6999999999999999600 ) ) ;
#984 = EDGE_CURVE ( 'NONE', #891, #651, #693, .T. ) ;
#985 = ADVANCED_FACE ( 'NONE', ( #126 ), #145, .T. ) ;
#986 = ORIENTED_EDGE ( 'NONE', *, *, #500, .F. ) ;
#987 = CARTESIAN_POINT ( 'NONE',  ( -1.100000000000000100, 0.03999999999999999400, 1.000000000000000000 ) ) ;
#988 = ORIENTED_EDGE ( 'NONE', *, *, #984, .T. ) ;
#989 = EDGE_LOOP ( 'NONE', ( #801, #379, #114, #803 ) ) ;
#990 = DIRECTION ( 'NONE',  ( 0.0000000000000000000, 0.0000000000000000000, 1.000000000000000000 ) ) ;
#991 = ORIENTED_EDGE ( 'NONE', *, *, #213, .T. ) ;
#992 = ADVANCED_FACE ( 'NONE', ( #481 ), #202, .T. ) ;
#993 = ORIENTED_EDGE ( 'NONE', *, *, #825, .T. ) ;
#994 = ORIENTED_EDGE ( 'NONE', *, *, #538, .T. ) ;
#995 = DIRECTION ( 'NONE',  ( -1.000000000000000000, 0.0000000000000000000, 0.0000000000000000000 ) ) ;
#996 = LINE ( 'NONE', #25, #807 ) ;
#997 = AXIS2_PLACEMENT_3D ( 'NONE', #241, #842, #691 ) ;
#998 = DIRECTION ( 'NONE',  ( -1.000000000000000000, -1.278921709445968400E-016, 0.0000000000000000000 ) ) ;
ENDSEC;
END-ISO-10303-21;
